<?xml version="1.0" standalone="no"?>
<!DOCTYPE svg PUBLIC "-//W3C//DTD SVG 1.1//EN" "http://www.w3.org/Graphics/SVG/1.1/DTD/svg11.dtd" >
<svg xmlns="http://www.w3.org/2000/svg" xmlns:xlink="http://www.w3.org/1999/xlink" version="1.1">
<metadata></metadata>
<defs>
<font id="simonettablack" horiz-adv-x="1477" >
<font-face units-per-em="2048" ascent="1638" descent="-410" />
<missing-glyph horiz-adv-x="457" />
<glyph unicode="&#xfb01;" horiz-adv-x="1204" d="M13 745l5 156h181l4 103q1 89 32 166.5t81.5 141t115.5 113t134 83.5t138 51.5t127 17.5q78 0 122 -38.5t44 -113.5q0 -29 -6 -51.5t-16 -41t-24 -34.5t-29 -32q-21 10 -51 18t-61.5 13.5t-61 8.5t-48.5 3q-48 0 -83.5 -7t-60.5 -31.5t-39.5 -72.5t-18.5 -129l-9 -168 q178 2 326 8.5t281 16.5q-22 -143 -40 -290.5t-18 -283.5q0 -50 10.5 -86t29 -59t44 -34t56.5 -11l-7 -162h-22q-132 0 -240.5 -8t-210.5 -33q22 142 40 281.5t17 264.5q0 98 -29 146t-102 53q-44 3 -81.5 4.5t-60.5 3.5q-5 -98 -8 -179.5t-4.5 -167t0.5 -174.5t9 -191h-16 q-97 0 -180 -12t-154 -29q12 78 23.5 168t20.5 190.5t14.5 209t6.5 200.5q-20 1 -50.5 4t-59.5 6q-34 4 -71 8z" />
<glyph unicode="&#xfb02;" horiz-adv-x="1260" d="M12 745l6 156h183l2 103q1 89 32 166.5t81.5 141t115.5 113t134 83.5t138 51.5t127 17.5q83 0 125 -43q60 9 113.5 20t91.5 23q-27 -217 -40.5 -398.5t-19.5 -330t-6.5 -266t-0.5 -205.5q0 -39 8 -77.5t25 -69t43 -49.5t63 -19l-6 -162h-23q-66 0 -125 -2t-113.5 -6.5 t-105.5 -12.5t-102 -20q25 189 38 385t18 354q-51 2 -107 4.5t-103.5 4t-81 3t-40.5 2.5q-4 -73 -7.5 -162.5t-5 -177.5t0.5 -179t9 -193h-16q-97 0 -180 -12t-154 -29q12 78 23.5 168t20.5 190.5t14.5 209t5.5 200.5q-20 1 -50.5 4t-59.5 6q-34 4 -71 8zM489 901h332 q2 119 3 219t1 174q-35 7 -69 11t-56 4q-48 0 -83.5 -7t-60.5 -31.5t-39.5 -72.5t-18.5 -129z" />
<glyph unicode="&#xfb03;" horiz-adv-x="1753" d="M12 741l4 156h185l2 25q7 89 40.5 166t84 140.5t113.5 113.5t130.5 84t134.5 51.5t125 17.5q48 0 93.5 -19t74.5 -51q47 37 98 65.5t103 47.5t101.5 29t93.5 10q77 0 122.5 -38.5t45.5 -113.5q0 -29 -6 -51.5t-16.5 -41t-24.5 -34.5t-29 -32q-21 10 -51 18t-62 13.5 t-61.5 8.5t-48.5 3q-48 0 -83.5 -7t-60 -31.5t-39 -72.5t-18.5 -129l-8 -168q177 2 325 8.5t281 16.5q-22 -143 -39.5 -290.5t-17.5 -283.5q0 -100 38.5 -145t100.5 -45l-6 -162h-23q-132 0 -240.5 -8t-209.5 -33q21 142 39 281.5t18 275.5q0 49 -6.5 81t-22 51.5 t-40.5 28.5t-62 11l-141 8q-5 -98 -9 -181t-5.5 -163.5t0.5 -165t9 -186.5h-16q-97 0 -172.5 -12t-146.5 -29q7 78 14.5 160.5t14 173.5t12 192t10.5 215l-277 11q-5 -98 -8.5 -183.5t-5 -168.5t0 -170t7.5 -189h-16q-97 0 -179 -12t-153 -29q26 156 42.5 345.5t21.5 418.5 q-20 2 -50.5 4.5t-59.5 5.5q-34 4 -71 8zM492 901h272l4 103q0 63 17 119.5t44 107.5q-37 8 -72 12t-57 4q-48 0 -83.5 -10.5t-60.5 -39t-40 -79t-20 -131.5z" />
<glyph unicode="&#xfb04;" horiz-adv-x="1823" d="M12 745l6 156h183l2 21q7 89 40.5 166t84 140.5t113.5 113.5t130.5 84t134.5 51.5t125 17.5q48 0 93.5 -19t74.5 -51q47 37 98 65.5t103 47.5t101.5 29t93.5 10q82 0 125 -43q60 9 113 20t91 23q-27 -217 -40.5 -398.5t-19.5 -330t-6.5 -266t-0.5 -205.5q0 -39 8 -77 t25 -68t43 -48t63 -18l-6 -166h-23q-66 0 -125 -2t-113.5 -6.5t-105.5 -12.5t-102 -20q25 186 38 377.5t18 345.5q-51 2 -106.5 4.5t-102.5 4t-80 3t-40 2.5q-4 -71 -8 -158t-5.5 -172.5t0.5 -174.5t9 -191h-16q-97 0 -172.5 -12t-146.5 -29q5 64 12 137.5t14 165t13.5 206 t10.5 233.5l-277 10q-4 -72 -7.5 -161.5t-5 -177.5t0 -179t7.5 -193h-16q-97 0 -179 -12t-153 -29q26 156 42.5 359t20.5 409q-20 2 -50.5 4.5t-59.5 5.5q-34 4 -70 8zM492 901h274v50t2 53q0 63 17 119.5t44 107.5q-37 8 -72 12t-57 4q-48 0 -83.5 -10.5t-60.5 -39t-40 -79 t-20 -131.5zM1055 901h329q2 119 3.5 219t1.5 174q-36 7 -70 11t-55 4q-48 0 -84 -7t-60.5 -31.5t-38.5 -72.5t-18 -129z" />
<glyph horiz-adv-x="0" />
<glyph unicode="&#xd;" horiz-adv-x="2048" />
<glyph unicode=" "  horiz-adv-x="457" />
<glyph unicode="&#x09;" horiz-adv-x="457" />
<glyph unicode="&#xa0;" horiz-adv-x="457" />
<glyph unicode="!" horiz-adv-x="625" d="M129 162q0 46 15 79.5t39 55t55.5 31.5t64.5 10q32 0 63.5 -10t56 -31.5t39.5 -55t15 -79.5q0 -42 -13.5 -76t-37 -59t-55 -38.5t-68.5 -13.5t-68.5 13.5t-55 38.5t-37 59t-13.5 76zM178 1391q9 -1 26.5 -2t40 -1.5t48.5 -1t53 -0.5t53 0.5t48 1t39.5 1.5t27.5 2 q-12 -83 -22.5 -163.5t-19.5 -157t-17 -146.5t-14 -131q-15 -143 -25 -269h-201q-3 126 -7 269q-2 61 -5 131t-6.5 146.5t-8 157t-10.5 163.5z" />
<glyph unicode="&#x22;" horiz-adv-x="840" d="M113 1483h305l-90 -539h-162zM485 1483h303l-88 -539h-163z" />
<glyph unicode="#" horiz-adv-x="1567" d="M41 338l6 205h330l51 295q-87 -3 -160.5 -7.5t-130.5 -9.5l6 205h318l65 365h235l-65 -365h260l66 365h235l-65 -365h297l-8 -172h-90q-43 0 -101.5 -0.5t-128.5 -1.5l-53 -309h285l-7 -172h-87q-42 0 -98 -0.5t-124 -1.5l-66 -369h-235l66 367l-262 -5l-64 -362h-235 l61 354q-88 -3 -165 -7t-136 -9zM612 543h260l54 307l-260 -4z" />
<glyph unicode="$" horiz-adv-x="1237" d="M66 16l14 449h231l4 -33q5 -39 17.5 -82t42.5 -79t83 -59.5t138 -23.5q82 0 132 31t50 88q0 29 -13 53.5t-37 47t-58.5 44t-77.5 44.5l-195 104q-62 33 -118 72t-99 88t-68.5 110.5t-25.5 139.5q0 68 19 137t68.5 126.5t135 98.5t217.5 53v152h254l-10 -150 q100 -8 191 -22t159 -31l-28 -448h-232l-4 26q-6 38 -17 81.5t-36.5 81t-70 62.5t-118.5 25q-75 0 -120 -32t-45 -91q0 -30 13.5 -56.5t38 -50t58 -45t72.5 -42.5l174 -92q64 -33 124.5 -72.5t107.5 -90t75.5 -114.5t28.5 -145q0 -63 -23 -127t-73.5 -118.5t-130 -95.5 t-193.5 -59v-213h-254l12 203q-59 2 -116.5 7.5t-110.5 12.5t-100.5 16t-85.5 19z" />
<glyph unicode="%" horiz-adv-x="1616" d="M82 950q0 78 25.5 150t72 127.5t112 89t146.5 33.5q51 0 93.5 -10.5t76.5 -30.5q31 -11 84.5 -21t130.5 -10q65 0 121 6.5t101.5 16t82 21.5t62.5 24l76 102l129 -109l-1006 -1380l-129 109l827 1136q-55 -31 -130.5 -51t-180.5 -20h-41q6 -26 10.5 -55t4.5 -58 q0 -86 -29 -160.5t-77.5 -130t-112.5 -87.5t-134 -32q-87 0 -147.5 27.5t-97.5 74t-53.5 108.5t-16.5 130zM317 979q0 -75 28.5 -117.5t70.5 -42.5t70 42.5t28 117.5t-28 118.5t-70 43.5t-70.5 -43.5t-28.5 -118.5zM874 340q0 78 25.5 150t72.5 127.5t112.5 88.5t146.5 33 q80 0 138.5 -25.5t97 -69.5t57 -104t18.5 -130q0 -86 -29 -161t-77.5 -130.5t-112 -87t-133.5 -31.5q-88 0 -148 27.5t-97.5 74t-54 108.5t-16.5 130zM1110 369q0 -76 28 -118t70 -42t70.5 42t28.5 118q0 75 -28.5 118t-70.5 43t-70 -43t-28 -118z" />
<glyph unicode="&#x26;" horiz-adv-x="1550" d="M78 342q0 75 21.5 136t58 112t84.5 93t100 79q-26 63 -40.5 124.5t-14.5 117.5q0 93 28 171.5t80 135.5t125.5 89t165.5 32q68 0 123 -21.5t93.5 -59.5t59.5 -89.5t21 -112.5q0 -69 -28.5 -125t-74 -103.5t-102.5 -89t-114 -81.5q19 -32 44 -67.5t52.5 -71t56 -68.5 t55.5 -58q33 57 62 112.5t56.5 104.5t56 90t62.5 71t74.5 46.5t92.5 16.5q45 0 79.5 -14t57 -36.5t34 -51.5t11.5 -58q0 -14 -2.5 -32t-10 -39t-20.5 -43t-34 -44q-29 16 -48 23.5t-45 7.5q-40 0 -69.5 -17.5t-58.5 -52.5t-62 -87.5t-80 -123.5q68 -59 126.5 -97t112.5 -56 t106 -15.5t108 23.5l65 -127q-29 -27 -62.5 -50t-71.5 -40.5t-79 -27t-84 -9.5q-117 0 -212 40.5t-183 121.5q-74 -74 -163.5 -118t-203.5 -44q-88 0 -163 26t-129.5 75.5t-85.5 120.5t-31 161zM371 401q0 -42 11.5 -79.5t34.5 -65.5t57 -44.5t79 -16.5q38 0 77 15t70 44 q-71 72 -138 156.5t-118 169.5q-35 -38 -54 -80t-19 -99zM549 1069q0 -70 31 -151q54 45 88 93.5t34 108.5q0 41 -14.5 66.5t-46.5 25.5q-22 0 -39 -12t-29 -32t-18 -45.5t-6 -53.5z" />
<glyph unicode="'" horiz-adv-x="467" d="M113 1483h303l-88 -539h-164z" />
<glyph unicode="(" horiz-adv-x="780" d="M59 526q0 150 48.5 293.5t135 268.5t206 227t260.5 170l84 -127q-234 -169 -343.5 -379t-109.5 -453q0 -120 17.5 -225t61.5 -204.5t119 -197.5t191 -202l-88 -129q-139 85 -247.5 186t-182.5 219.5t-113 256t-39 296.5z" />
<glyph unicode=")" horiz-adv-x="780" d="M-14 -305q233 169 342.5 379t109.5 452q0 120 -17.5 225.5t-61.5 205t-119 197t-191 202.5l88 129q139 -86 247.5 -186.5t182.5 -219.5t113 -256.5t39 -296.5q0 -150 -48.5 -293t-135 -268t-205.5 -227.5t-260 -169.5z" />
<glyph unicode="*" horiz-adv-x="938" d="M45 895l272 121l-266 121q34 46 58 85t43 81l233 -168l-20 290q21 -2 36 -3.5t26 -2t20 -0.5h18q15 0 34.5 0.5t59.5 5.5l-39 -295q29 19 61.5 41.5t65.5 45t64 43.5t57 38q19 -42 39.5 -81t48.5 -84l-268 -117q65 -31 132 -65t126 -62q-9 -11 -24 -33.5t-30 -47t-29 -47 t-22 -34.5l-229 176q3 -75 8 -151t8 -144q-7 0 -20 0.5t-27.5 0.5t-27.5 0.5t-19 0.5t-19.5 -0.5t-28.5 -0.5t-28.5 -0.5t-19.5 -0.5l43 291l-248 -170q-5 12 -17 35.5t-25.5 48.5t-26 47.5t-19.5 34.5z" />
<glyph unicode="+" horiz-adv-x="1098" d="M80 549v188h377v377h188v-377h377v-188h-377v-377h-188v377h-377z" />
<glyph unicode="," horiz-adv-x="549" d="M70 -184q46 40 73 94.5t27 105.5q0 39 -22.5 76t-73.5 66q0 34 11.5 66.5t34 58t56 40.5t76.5 15q37 0 70 -13t58.5 -40t40.5 -68t15 -96q0 -42 -11.5 -94.5t-41 -109t-79.5 -114.5t-128 -110z" />
<glyph unicode="-" horiz-adv-x="776" d="M102 389l7 229h563l-6 -229h-564z" />
<glyph unicode="." horiz-adv-x="541" d="M82 162q0 46 15 79.5t39 55t55.5 31.5t64.5 10q32 0 63.5 -10t56 -31.5t39.5 -55t15 -79.5q0 -42 -13.5 -76t-37 -59t-55 -38.5t-68.5 -13.5t-68.5 13.5t-55 38.5t-37 59t-13.5 76z" />
<glyph unicode="/" horiz-adv-x="1217" d="M61 -356l881 1829h213l-881 -1829h-213z" />
<glyph unicode="0" horiz-adv-x="1280" d="M63 662q0 89 13 181t41.5 177.5t73.5 160.5t109 131t148 88t191 32q98 0 176 -27.5t137.5 -76t102.5 -115t70 -145t40 -165t13 -174.5q0 -89 -13.5 -181t-42.5 -177.5t-74.5 -160.5t-110 -131t-149 -88t-190.5 -32q-97 0 -174.5 27.5t-137 76t-102 115t-69.5 144.5 t-39.5 164.5t-12.5 175.5zM397 725q0 -53 4.5 -115t14.5 -123t26.5 -118t41.5 -101t59 -70t78 -26q47 0 82 25t60 65.5t40.5 93t24.5 107.5t12.5 108.5t3.5 96.5q0 53 -4.5 115t-14.5 123t-26.5 118t-41.5 101t-58.5 70t-77.5 26q-49 0 -84.5 -25t-60.5 -65.5t-40.5 -93 t-24 -107.5t-11.5 -108.5t-3 -96.5z" />
<glyph unicode="1" horiz-adv-x="872" d="M10 1112q72 42 136 86t119.5 86t102.5 80t85 68l186 -76q-4 -58 -7.5 -141t-6.5 -177t-6 -192t-5 -187.5t-3 -162.5t-1 -117q0 -56 9 -90t25.5 -53.5t40.5 -28t54 -12.5l39 -7l-8 -194q-56 4 -115 8q-51 3 -110.5 5.5t-116.5 2.5q-56 0 -142 -2t-198 -14l8 194q27 3 55 6 q24 2 53.5 4.5t57.5 2.5q5 48 9 115.5t7 144.5t5.5 158.5t4 157t2.5 140.5t1 109l-185 -94z" />
<glyph unicode="2" horiz-adv-x="1128" d="M2 190q67 70 138.5 141.5t139 143.5t127.5 142t105 136.5t71.5 128t26.5 115.5q0 79 -38 126.5t-113 47.5q-32 0 -59.5 -12t-47.5 -34t-31.5 -53t-11.5 -68q0 -13 1.5 -24.5t4.5 -25.5q-24 -18 -58.5 -28.5t-66.5 -10.5t-61.5 10t-52 30t-36 50.5t-13.5 71.5q0 85 39 151 t105 111.5t153 69t182 23.5q103 0 188.5 -25t147.5 -74t96.5 -121.5t34.5 -167.5q0 -92 -43.5 -182.5t-123 -185t-191.5 -195.5t-248 -213h217q67 0 110.5 16t72 41.5t45.5 56.5t32 62l28 62l166 -27q-9 -57 -17.5 -125.5t-15.5 -134.5t-13.5 -124t-10.5 -95h-909z" />
<glyph unicode="3" horiz-adv-x="1128" d="M31 182q0 60 31 106.5t90 78.5q41 -41 79 -70t77 -47t81 -26.5t92 -8.5q44 0 81.5 13.5t65 40t43 66.5t15.5 93q0 42 -13.5 76.5t-38 59t-59 37.5t-77.5 13q-41 0 -86 -11.5t-80 -27.5l-64 193l111 43q35 14 73 36.5t69.5 52t52 65.5t20.5 77q0 21 -6.5 40.5t-21 34 t-36 23.5t-51.5 9q-22 0 -51 -5.5t-62.5 -19t-72 -36.5t-80.5 -58l-123 150q46 48 99.5 93t116 80.5t136 57t160.5 21.5q94 0 161.5 -22t111.5 -60.5t65 -92t21 -116.5q0 -46 -17.5 -92t-46 -86.5t-65.5 -73t-76 -51.5q58 -9 109 -36t89 -69.5t60 -99t22 -123.5 q0 -78 -25.5 -149t-70 -132t-105 -111t-132 -85.5t-150 -54.5t-158.5 -19q-95 0 -164 16.5t-113.5 46.5t-65.5 71t-21 89z" />
<glyph unicode="4" horiz-adv-x="1221" d="M0 393l6 221l721 818l203 -76q-4 -47 -8 -129t-8 -182t-7.5 -209.5t-5.5 -210.5q57 3 103.5 6t80.5 5q40 3 72 5l-67 -248h-193v-14q0 -56 9.5 -90t27 -53.5t42 -28t54.5 -12.5l39 -7l-8 -194q-60 4 -122 8q-53 3 -115.5 5.5t-118.5 2.5q-54 0 -135.5 -2t-190.5 -14 l6 194q26 3 55 6l54 4.5t59 2.5q3 40 5.5 88t4.5 104h-563zM264 602q72 0 150.5 1.5t156.5 4.5q3 97 5 184.5t2 149.5z" />
<glyph unicode="5" horiz-adv-x="1106" d="M-14 182q0 60 31 106.5t89 78.5q42 -41 80 -70t76.5 -47t79 -26.5t86.5 -8.5q43 0 82 14t68.5 43.5t47 75t17.5 109.5q0 39 -13.5 76t-41.5 65.5t-72 46t-104 17.5q-39 0 -80.5 -7t-69.5 -16l-100 127l78 625h393q43 0 72.5 4t51.5 15.5t40.5 32.5t40.5 56l30 49l172 -73 q-13 -37 -25.5 -83.5t-25 -96t-25.5 -99.5t-26 -94h-506l-31 -236q39 11 80 16t84 5q80 0 157.5 -20.5t138.5 -64.5t98.5 -112.5t37.5 -165.5q0 -78 -23 -150t-65.5 -134.5t-101.5 -114.5t-130.5 -88.5t-154.5 -57t-172 -20.5q-95 0 -164 16.5t-113.5 46.5t-65.5 71t-21 89z " />
<glyph unicode="6" horiz-adv-x="1153" d="M49 469q0 116 33 221t91 198t138.5 174.5t175.5 150t200.5 123.5t215.5 96l84 -179q-78 -33 -152 -78.5t-139.5 -101.5t-120.5 -122t-96 -140q44 14 89.5 21.5t95.5 7.5q69 0 139.5 -22t128 -68t93.5 -117.5t36 -171.5q0 -118 -43.5 -211t-115 -157.5t-163 -99 t-186.5 -34.5q-105 0 -196.5 33.5t-160 98t-108 159.5t-39.5 219zM383 453q0 -68 13.5 -119t37 -84.5t55.5 -50.5t70 -17q36 0 66.5 15t52.5 43.5t34.5 71t12.5 98.5q0 47 -9 87.5t-31 70t-57.5 46.5t-88.5 17q-39 0 -73.5 -7t-66.5 -20q-8 -37 -12 -74t-4 -77z" />
<glyph unicode="7" horiz-adv-x="1059" d="M8 936q29 120 54 229t47 226h870l78 -109q-94 -196 -174.5 -372t-152.5 -338t-139 -314t-134 -299l-322 170q88 137 164 251.5t146.5 226t139.5 230.5t144 265h-309q-47 0 -77.5 -7t-50.5 -21t-33.5 -34.5t-25.5 -46.5l-40 -86z" />
<glyph unicode="8" horiz-adv-x="1169" d="M53 315q0 71 21.5 131t58 112.5t85.5 98t104 86.5q-41 36 -77 73.5t-62.5 77.5t-42 83.5t-15.5 91.5q0 62 19.5 113.5t54 92t80.5 70t99.5 49t111.5 29t116 9.5q81 0 158 -20t136.5 -59.5t95.5 -99.5t36 -141q0 -59 -15.5 -107.5t-42.5 -90.5t-63 -79.5t-77 -72.5 q46 -39 87.5 -81t73.5 -87t51 -94.5t19 -104.5q0 -102 -46.5 -183t-123 -137t-176 -86t-205.5 -30q-81 0 -163.5 21.5t-148.5 65.5t-107.5 111t-41.5 158zM315 344q0 -46 16 -81.5t43.5 -59.5t65 -36.5t80.5 -12.5q39 0 72.5 11t58 33t38 53.5t13.5 72.5q0 38 -17.5 74 t-47 71t-69 69.5t-83.5 69.5q-35 -27 -65.5 -58t-54 -64t-37 -69t-13.5 -73zM481 1122q0 -27 14.5 -55t39.5 -56.5t59.5 -57.5t73.5 -60q23 20 43.5 40.5t36.5 43.5t25 49t9 57q0 37 -12.5 66t-34 49t-50.5 30.5t-62 10.5q-26 0 -51.5 -7t-45.5 -21t-32.5 -36t-12.5 -53z " />
<glyph unicode="9" horiz-adv-x="1153" d="M53 930q0 117 43.5 210.5t115 158t163 99t186.5 34.5q105 0 196.5 -33.5t159.5 -98t107 -160t39 -218.5q0 -116 -32.5 -221t-91 -198t-138.5 -174.5t-175 -150t-201 -123.5t-216 -96l-84 178q79 33 153 78.5t139 102t120 122.5t96 140q-89 -29 -182 -29q-69 0 -140 22 t-128.5 68t-93.5 117.5t-36 171.5zM389 981q0 -47 9 -87.5t31 -70t57.5 -46.5t88.5 -17q73 0 138 24q8 39 12 77.5t4 76.5q0 67 -13 118t-36.5 84.5t-56 50.5t-70.5 17q-35 0 -65 -15t-52 -43.5t-34.5 -71t-12.5 -97.5z" />
<glyph unicode=":" horiz-adv-x="569" d="M96 162q0 46 15 79.5t39 55t55.5 31.5t64.5 10q32 0 63.5 -10t56 -31.5t39.5 -55t15 -79.5q0 -42 -13.5 -76t-36.5 -59t-55 -38.5t-69 -13.5t-68.5 13.5t-55 38.5t-37 59t-13.5 76zM117 750q0 46 15 79t39 54.5t55.5 32t64.5 10.5q32 0 63.5 -10.5t56 -32t39.5 -54.5 t15 -79q0 -42 -13.5 -76t-37 -59t-55 -38.5t-68.5 -13.5t-68.5 13.5t-55 38.5t-37 59t-13.5 76z" />
<glyph unicode=";" horiz-adv-x="575" d="M84 -184q46 40 73 94.5t27 105.5q0 39 -22.5 76t-73.5 66q0 34 12 66.5t34.5 58t55.5 40.5t76 15q37 0 70.5 -13t59 -40t40.5 -68t15 -96q0 -42 -11.5 -94.5t-41 -109t-80 -114.5t-128.5 -110zM117 750q0 46 15 79t39 54.5t55.5 32t64.5 10.5q32 0 63.5 -10.5t56 -32 t39.5 -54.5t15 -79q0 -42 -13.5 -76t-37 -59t-55 -38.5t-68.5 -13.5t-68.5 13.5t-55 38.5t-37 59t-13.5 76z" />
<glyph unicode="&#x3c;" horiz-adv-x="1114" d="M74 565v131l852 432l82 -159l-668 -338l668 -336l-82 -160z" />
<glyph unicode="=" horiz-adv-x="1169" d="M115 369v188h942v-188h-942zM115 737v189h942v-189h-942z" />
<glyph unicode="&#x3e;" horiz-adv-x="1112" d="M109 295l663 336l-663 338l81 159l852 -432v-131l-852 -430z" />
<glyph unicode="?" horiz-adv-x="815" d="M94 1174q0 58 28 105.5t74.5 81.5t105 52.5t120.5 18.5q81 0 144 -22.5t106.5 -61t66.5 -89t23 -106.5q0 -63 -17.5 -113.5t-45.5 -90.5t-64 -71t-74 -55.5t-74 -44t-64 -36.5t-45.5 -32.5t-17.5 -31.5q0 -19 17 -31t57 -12q52 0 87 7.5t73 21.5v-7q0 -41 -11 -83 t-35 -76t-62 -56t-91 -22q-42 0 -77.5 13.5t-61 39.5t-39.5 64t-14 86q0 59 16.5 110t46.5 97.5t72.5 91t93.5 90.5q16 15 32 30.5t28.5 33.5t20 39t7.5 46q0 14 -4.5 27.5t-14 24.5t-25.5 17.5t-38 6.5q-18 0 -35.5 -7.5t-31 -23t-21.5 -39.5t-8 -57q0 -15 1.5 -32t6.5 -36 q-26 -8 -50 -11t-46 -3q-71 0 -115.5 36.5t-44.5 109.5zM209 162q0 46 15 79.5t39 55t55.5 31.5t64.5 10q32 0 63.5 -10t56 -31.5t39.5 -55t15 -79.5q0 -42 -13.5 -76t-37 -59t-55 -38.5t-68.5 -13.5t-68.5 13.5t-55 38.5t-37 59t-13.5 76z" />
<glyph unicode="@" horiz-adv-x="1540" d="M59 369q0 111 28 211.5t79 187t123.5 156t161.5 119t191.5 76t215.5 26.5q135 0 245.5 -38.5t189 -111.5t122 -177t43.5 -234q0 -120 -43 -219t-118 -169.5t-176 -109.5t-218 -39l-61 98l43 174l-11 7q-30 -45 -65 -89.5t-72 -83t-75 -66.5t-74 -40l-150 49 q-4 14 -7.5 32t-6.5 36.5t-4.5 36t-1.5 30.5q0 130 37 240t96 190t134 125t151 45q31 0 66.5 -2.5t72 -8t73 -13.5t70.5 -19q-11 -138 -14 -271t-6 -269q49 10 88 40t66.5 75t42 101.5t14.5 119.5q0 82 -28 159.5t-85.5 137.5t-145 96.5t-206.5 36.5q-124 0 -231.5 -47 t-187 -130t-125.5 -197t-46 -249q0 -123 35 -227.5t104.5 -180t174 -118.5t243.5 -43q57 0 111 7t108 21.5t109.5 36.5t115.5 52l48 -107q-144 -77 -273 -114t-256 -37q-148 0 -278.5 50.5t-227.5 142t-153 217.5t-56 278zM645 296.5q0 -15.5 2 -32.5q25 1 64.5 30t77.5 78 t68.5 115t39.5 142l2 59q-19 5 -41.5 8.5t-42.5 3.5q-41 0 -72.5 -30.5t-53 -81.5t-33 -118.5t-11.5 -141.5v-31.5z" />
<glyph unicode="A" d="M-31 -6l8 194l30 5q15 2 37.5 4t51.5 4l529 1190l256 41l381 -1006q24 -65 45.5 -104.5t42.5 -62.5t42.5 -34.5t45.5 -19.5l47 -17l-8 -194q-66 6 -150 11t-178 5q-100 0 -191.5 -5t-166.5 -11l8 194q52 7 90 10t76 3l-64 207q-90 -2 -205.5 -6.5t-240.5 -12.5 q-14 -35 -20.5 -62t-6.5 -48q0 -41 22 -59.5t62 -24.5l39 -7l-8 -194q-31 4 -74 8q-37 3 -90.5 5.5t-124.5 2.5q-35 0 -63.5 -0.5t-59.5 -2t-69.5 -4.5t-92.5 -9zM539 636h292l-118 384h-41z" />
<glyph unicode="B" horiz-adv-x="1389" d="M72 -6l8 194q26 3 54 6q24 2 53.5 4.5t58.5 2.5q4 48 8 114.5t7 142t6 155t5 153.5t3 138t1 108q0 55 -8.5 89t-25 53.5t-39.5 28t-53 13.5l-44 6l7 195q31 -4 74 -7q37 -2 91 -4t125 -2q100 0 185.5 7.5t165.5 7.5q117 0 206 -25t148 -70t89 -108.5t30 -140.5 q0 -48 -10.5 -94t-28.5 -86t-41 -72t-47 -53q49 -21 90 -51t70.5 -72t46 -96t16.5 -123q0 -93 -34 -171.5t-100 -135.5t-162 -89t-220 -32q-56 0 -112.5 4.5t-112 10.5t-110 10.5t-105.5 4.5q-69 0 -139 -3.5t-156 -12.5zM590 244q18 -12 41.5 -20.5t47.5 -13.5t45.5 -7 t33.5 -2q40 0 75.5 12.5t62.5 37.5t42.5 63.5t15.5 91.5q0 41 -14 75.5t-44 59t-76.5 38t-110.5 13.5q-28 0 -60.5 -1.5t-52.5 -4.5zM604 807q9 1 22.5 1.5t28 0.5h28h22.5q34 0 68.5 -0.5t68.5 -3.5q24 29 41.5 71t17.5 87q0 50 -16 89.5t-45.5 67t-71.5 42t-94 14.5h-26.5 t-26.5 -2q-3 -63 -6 -127q-3 -55 -6 -119t-5 -121z" />
<glyph unicode="C" horiz-adv-x="1405" d="M78 670q0 180 59 322t165.5 239.5t256 149t330.5 51.5q78 0 141 -5t116 -13t99 -18.5t90 -21.5l-16 -448h-252v14q0 45 -9 93t-35.5 87.5t-75 64.5t-128.5 25q-72 0 -140 -31.5t-121.5 -93.5t-85.5 -154.5t-32 -215.5q0 -141 44 -238t117 -157.5t167 -87.5t193 -27 q46 0 91.5 3.5t86.5 9.5t76.5 13.5t62.5 16.5l55 -203q-47 -17 -104 -32.5t-120 -27.5t-131 -19t-136 -7q-173 0 -314 46t-241 136t-154.5 222.5t-54.5 306.5z" />
<glyph unicode="D" horiz-adv-x="1620" d="M72 -6l8 194q17 3 34 5t36.5 3.5t43 2t52.5 2.5q4 58 7 128.5t6.5 146t6 152.5t4.5 147.5t3 131.5t1 105q0 55 -9 89t-25.5 53.5t-40.5 28t-54 13.5l-39 6l9 195q46 -6 91 -10q38 -4 82 -6.5t79 -2.5q59 0 115.5 3.5t115 8t120 8.5t130.5 3q164 0 294.5 -47.5t221 -136 t138.5 -215t48 -283.5q0 -72 -14 -154t-48 -163t-92 -156t-145 -132.5t-207.5 -91.5t-279.5 -34q-50 0 -100 3.5t-102 7.5t-105.5 7.5t-110.5 3.5q-16 0 -45.5 -1t-67 -2.5t-79.5 -5t-82 -7.5zM590 338q0 -34 9 -57t32 -37.5t64 -20.5t106 -6q33 0 74.5 9t84 31.5t83 59.5 t72 94t50.5 135.5t19 182.5q0 43 -7 94t-24.5 101.5t-48 97.5t-76.5 83t-109.5 57.5t-148.5 21.5q-43 0 -85.5 -1.5t-68.5 -4.5q-6 -207 -10 -350t-7.5 -236t-5 -144t-2.5 -75t-1 -29v-6z" />
<glyph unicode="E" horiz-adv-x="1384" d="M72 -6l8 194l60 6q26 2 54.5 4.5t51.5 2.5q4 48 7.5 114.5t6.5 142t6 155t4.5 153.5t2.5 138t1 108q0 55 -9 89t-25.5 53.5t-40.5 28t-54 13.5l-39 6l9 195q62 -6 124.5 -10t128.5 -7t137.5 -4.5t151.5 -1.5q150 0 310.5 6t335.5 17l-31 -471h-232l-6 55q-5 38 -15 68 t-29.5 51.5t-49.5 34.5t-74 18l-245 25l-13 -373l396 16l-11 -248l-393 27l-12 -383l239 14q59 4 98 20.5t64.5 46.5t41.5 74.5t28 106.5h239l-59 -499q-164 14 -343.5 21t-369.5 7q-59 0 -114.5 -1t-111 -2.5t-112 -4t-116.5 -6.5z" />
<glyph unicode="F" horiz-adv-x="1288" d="M72 -6l8 194q26 3 54 6q24 2 53.5 4.5t58.5 2.5q4 58 7 128.5t6.5 146t6 152.5t4.5 147.5t3 131.5t1 105q0 55 -9 89t-25.5 53.5t-40.5 28t-54 13.5l-39 6l9 195q62 -6 124 -10t126.5 -7t134 -4.5t147.5 -1.5q146 0 303.5 6t331.5 17l-31 -471h-231l-6 55 q-5 38 -15.5 68.5t-29.5 52.5t-49 35t-74 18l-225 23l-19 -414l402 16l-11 -248l-397 27l-6 -180q0 -56 9.5 -90t27 -53.5t42 -28t54.5 -12.5l39 -7l-8 -194q-45 4 -98 8q-46 3 -106.5 5.5t-131.5 2.5q-69 0 -153.5 -2t-192.5 -14z" />
<glyph unicode="G" horiz-adv-x="1589" d="M76 672q0 182 63 323.5t174.5 238.5t265 147.5t334.5 50.5q74 0 138 -5t120 -13t105 -18.5t94 -21.5l-16 -448h-252v14q0 45 -10.5 92.5t-39.5 87t-81 65t-135 25.5q-72 0 -143 -30t-127.5 -92.5t-91 -157t-34.5 -223.5q0 -120 33 -217t89.5 -165.5t132 -105.5t159.5 -37 q57 0 105 10t83 33q3 61 4 92t2 44.5t1 15.5v4q0 48 -10 78t-27.5 47.5t-41.5 25.5t-52 13l-41 6l8 194q56 -4 113 -8q49 -3 105 -5.5t105 -2.5q42 0 82.5 0.5t83 2t88.5 5t99 8.5l-9 -194q-27 -3 -55 -6q-24 -2 -53 -4t-58 -2l-16 -494q-47 -17 -108.5 -32.5t-127.5 -27.5 t-130 -19t-115 -7q-173 0 -321.5 46t-258 136t-171.5 223.5t-62 307.5z" />
<glyph unicode="H" horiz-adv-x="1749" d="M72 -6l8 194q26 3 54 6q24 2 53.5 4.5t58.5 2.5q4 58 7 128.5t6.5 146t6 152.5t4.5 147.5t3 131.5t1 105q0 55 -9 89t-25.5 53.5t-40.5 28t-54 13.5l-39 6l9 195q44 -5 97 -9q45 -3 106 -5.5t133 -2.5q69 0 153.5 2t192.5 15l-9 -195q-26 -3 -54 -6q-24 -2 -53 -4t-58 -2 l-19 -362h561q2 54 2 101.5v82.5q0 55 -9 89t-25.5 53.5t-40.5 28t-54 13.5l-39 6l9 195q44 -5 97 -9q45 -3 106 -5.5t132 -2.5q70 0 154.5 2t192.5 15l-9 -195q-26 -3 -54 -6q-24 -2 -53 -4t-58 -2q-4 -59 -7.5 -129.5t-6.5 -146t-6 -152t-5 -147t-3 -131.5t-1 -105 q0 -56 9 -90t25.5 -53.5t40.5 -28t54 -12.5l39 -7l-8 -194q-45 4 -98 8q-46 3 -106.5 5.5t-131.5 2.5q-69 0 -153.5 -2t-192.5 -14l8 194q26 3 54 6q24 2 53.5 4.5t58.5 2.5q5 83 10 188t8 213q-41 0 -101.5 -1t-134.5 -3t-157 -5.5t-168 -8.5q-2 -62 -2 -114.5v-90.5 q0 -56 9 -90t25.5 -53.5t40.5 -28t54 -12.5l39 -7l-8 -194q-45 4 -98 8q-46 3 -106.5 5.5t-131.5 2.5q-69 0 -153.5 -2t-192.5 -14z" />
<glyph unicode="I" horiz-adv-x="858" d="M72 -6l8 194q26 3 54 6q24 2 53.5 4.5t58.5 2.5q4 58 7 128.5t6.5 146t6 152.5t4.5 147.5t3 131.5t1 105q0 55 -9 89t-25.5 53.5t-40.5 28t-54 13.5l-39 6l9 195q44 -5 97 -9q45 -3 106 -5.5t133 -2.5q69 0 153.5 2t192.5 15l-9 -195q-26 -3 -54 -6q-24 -2 -53 -4t-58 -2 q-4 -59 -7.5 -129.5t-6.5 -146t-6 -152t-5 -147t-3 -131.5t-1 -105q0 -56 9 -90t25.5 -53.5t40.5 -28t54 -12.5l39 -7l-8 -194q-45 4 -98 8q-46 3 -106.5 5.5t-131.5 2.5q-69 0 -153.5 -2t-192.5 -14z" />
<glyph unicode="J" horiz-adv-x="799" d="M-113 -375q81 68 148 142q28 31 56.5 67t52 74t40.5 77t23 78q7 51 13 128.5t11 168.5t8.5 187.5t6 185t3.5 162t1 117.5q0 55 -9 89t-25.5 53.5t-40.5 28t-54 13.5l-39 6l8 195q43 -5 97 -9q45 -3 106.5 -5.5t132.5 -2.5q69 0 153.5 2t192.5 15l-8 -195q-26 -3 -54 -6 q-24 -2 -53.5 -4t-58.5 -2q-3 -36 -6 -95t-6.5 -133t-6.5 -158t-6 -170t-6 -169.5t-5 -156.5t-4 -131t-3 -93q-3 -76 -30 -153.5t-90 -157.5t-167.5 -163.5t-261.5 -170.5z" />
<glyph unicode="K" horiz-adv-x="1559" d="M72 -6l8 194q26 3 54 6q24 2 53.5 4.5t58.5 2.5q4 58 7 128.5t6.5 146t6 152.5t4.5 147.5t3 131.5t1 105q0 55 -9 89t-25.5 53.5t-40.5 28t-54 13.5l-39 6l9 195q44 -5 97 -9q45 -3 106 -5.5t133 -2.5q69 0 153.5 2t192.5 15l-9 -195q-26 -3 -54 -6q-24 -2 -53 -4t-58 -2 q-4 -59 -7.5 -129.5t-6.5 -146t-6 -152t-5 -147t-3 -131.5t-1 -105q0 -56 9 -90t25.5 -53.5t40.5 -28t54 -12.5l39 -7l-8 -194q-45 4 -98 8q-46 3 -106.5 5.5t-131.5 2.5q-69 0 -153.5 -2t-192.5 -14zM668 659l2 68l358 465q-20 2 -41.5 3t-40.5 3q-22 2 -43 4l8 195 q45 -6 117 -10.5t166 -4.5q82 0 161 3.5t138 11.5l-10 -193l-25 -4q-60 -6 -123 -45.5t-141 -128.5l-211 -240l166 -239q45 -65 89.5 -127t91.5 -113t97.5 -87t108.5 -50l-6 -154q-28 -17 -56.5 -22.5t-56.5 -5.5q-80 0 -152 19t-138 60.5t-127.5 107t-120.5 157.5z" />
<glyph unicode="L" horiz-adv-x="1321" d="M70 -6l8 194q26 3 54 6q24 2 53.5 4.5t58.5 2.5q4 58 7 128.5t6.5 146t6 152.5t4.5 147.5t3 131.5t1 105q0 55 -9 89t-25.5 53.5t-40.5 28t-54 13.5l-39 6l9 195q44 -5 97 -9q45 -3 106 -5.5t133 -2.5q69 0 153.5 2t192.5 15l-9 -195q-26 -3 -54 -6q-24 -2 -53 -4t-58 -2 q-8 -74 -15.5 -318.5t-17.5 -648.5l217 17q57 4 95.5 20t64 45t42 72t29.5 102h260l-59 -499q-156 14 -322.5 21t-359.5 7q-121 0 -243 -3t-242 -11z" />
<glyph unicode="M" horiz-adv-x="1966" d="M8 -6l8 194q26 3 54 6q24 2 53.5 4.5t58.5 2.5l148 1190l278 41l361 -861h41l321 820l328 41l96 -1053q5 -56 15 -90t25.5 -53.5t38 -28t52.5 -12.5l39 -7l-6 -194q-40 4 -89 8q-42 3 -101 5.5t-130 2.5q-68 0 -150.5 -3.5t-191.5 -12.5l9 194q26 3 54 6q24 2 53.5 4.5 t58.5 2.5l-52 649h-41l-313 -795h-201l-325 795h-41q-3 -119 -5.5 -201t-4 -136t-2 -83.5t-1 -44t-0.5 -18v-5.5q0 -50 9 -80.5t25.5 -48.5t40 -26t52.5 -12l41 -7l-8 -194q-42 4 -90 8q-42 3 -97 5.5t-118 2.5q-35 0 -64.5 -1t-62.5 -2.5t-72.5 -5t-93.5 -7.5z" />
<glyph unicode="N" horiz-adv-x="1649" d="M53 -6l8 194q20 3 45 6q20 2 47 4.5t56 2.5l22 643q7 155 10 272t3 207v68l198 41l725 -889l37 6l-16 438q-2 63 -13 101.5t-29.5 60.5t-45 32t-60.5 15l-47 6l8 195q47 -5 95 -9q42 -3 92 -5.5t98 -2.5q34 0 67.5 0.5t71 2.5t80.5 5t97 9l-9 -193q-20 -3 -43 -6 q-20 -2 -45.5 -4t-54.5 -2l-25 -635q-3 -93 -5 -168.5t-3 -140.5t-1.5 -125t-0.5 -121l-207 -43l-723 889l-36 -6l18 -436q2 -63 12.5 -102t29.5 -61.5t45 -32.5t60 -15l48 -7l-9 -194q-46 4 -94 8q-42 3 -92 5.5t-98 2.5q-35 0 -68.5 -0.5t-70.5 -2t-80 -5t-97 -8.5z" />
<glyph unicode="O" horiz-adv-x="1595" d="M76 688q0 155 54 291t154.5 236.5t243.5 158.5t320 58q166 0 293 -58t213.5 -155.5t131 -225.5t44.5 -268q0 -105 -25.5 -202.5t-72 -182.5t-112.5 -155.5t-147 -120.5t-175 -77.5t-197 -27.5q-186 0 -322.5 58t-226 157.5t-133 232t-43.5 281.5zM440 735 q0 -112 26 -212.5t74.5 -176t117 -120t153.5 -44.5q89 0 155 42.5t109.5 111t64.5 153.5t21 170q0 111 -25.5 211t-73.5 175.5t-116.5 120t-154.5 44.5q-89 0 -155 -43t-109.5 -111.5t-65 -153t-21.5 -167.5z" />
<glyph unicode="P" horiz-adv-x="1321" d="M72 -6l8 194q26 3 54 6q24 2 53.5 4.5t58.5 2.5q4 58 7 128.5t6.5 146t6 152.5t4.5 147.5t3 131.5t1 105q0 55 -9 89t-25.5 53.5t-40.5 28t-54 13.5l-39 6l9 195q44 -4 91 -7q40 -2 86.5 -4t90.5 -2q72 0 127 2.5t101 5t88 5t89 2.5q125 0 220.5 -28.5t160 -82.5t97 -131 t32.5 -174q0 -77 -21.5 -141.5t-59 -116t-87 -90t-106 -64t-116.5 -38.5t-117 -13t-109 12l10 218q19 -4 28 -4.5t21 -0.5q41 0 76 15t61 43t41 68.5t15 91.5q0 103 -67 158t-181 55q-17 0 -35.5 -1.5t-29.5 -3.5q-4 -58 -7.5 -127t-6.5 -142.5t-5 -148t-4 -143t-3 -128 t-1 -103.5q0 -56 9 -90t25.5 -53.5t40.5 -28t54 -12.5l39 -7l-8 -194q-45 4 -98 8q-46 3 -106.5 5.5t-131.5 2.5q-69 0 -153.5 -2t-192.5 -14z" />
<glyph unicode="Q" horiz-adv-x="1595" d="M76 688q0 155 54 291t154.5 236.5t243.5 158.5t320 58q166 0 293 -58t213.5 -155.5t131 -225.5t44.5 -268q0 -105 -25.5 -202.5t-72 -182.5t-112.5 -155.5t-147 -120.5t-175 -77.5t-197 -27.5q-186 0 -322.5 58t-226 157.5t-133 232t-43.5 281.5zM344 -186q26 15 58.5 30 t68.5 27.5t74.5 20.5t77.5 8q59 0 115 -13.5t108 -34.5t100.5 -46t92 -48t82 -40.5t71.5 -22.5l176 55l84 -174q-30 -32 -67 -61.5t-79 -52t-89 -35.5t-97 -13q-55 0 -108.5 17t-103 43.5t-95 58.5t-85 62.5t-72 56t-56.5 37.5l-190 -56zM440 735q0 -112 26 -212.5 t74.5 -176t117 -120t153.5 -44.5q89 0 155 42.5t109.5 111t64.5 153.5t21 170q0 111 -25.5 211t-73.5 175.5t-116.5 120t-154.5 44.5q-89 0 -155 -43t-109.5 -111.5t-65 -153t-21.5 -167.5z" />
<glyph unicode="R" horiz-adv-x="1470" d="M72 -6l8 194q26 3 54 6q24 2 53.5 4.5t58.5 2.5q4 58 7 128.5t6.5 146t6 152.5t4.5 147.5t3 131.5t1 105q0 55 -9 89t-25.5 53.5t-40.5 28t-54 13.5l-39 6l9 195q48 -4 96 -7q42 -2 90.5 -4t91.5 -2q42 0 90 2.5t99 5t102.5 5t101.5 2.5q125 0 221 -29t160.5 -83 t97.5 -131.5t33 -174.5q0 -70 -18 -127t-50 -103t-76.5 -81t-98.5 -60l90 -164q38 -69 78.5 -121t79.5 -86.5t75.5 -51.5t67.5 -17l-8 -170q-15 -3 -34 -6q-17 -2 -40 -4t-53 -2q-72 0 -136.5 16.5t-123.5 55.5t-112.5 102.5t-102.5 156.5l-117 220q-11 -2 -21.5 -2h-21.5 q-22 0 -43 1t-35 1q-2 -44 -2 -87.5v-72.5q0 -56 8.5 -90t25 -53.5t40 -28t53.5 -12.5l39 -7l-8 -194q-45 4 -98 8q-46 3 -106.5 5.5t-131.5 2.5q-69 0 -153.5 -2t-192.5 -14zM604 750q17 -4 34.5 -4.5t37.5 -0.5q122 0 191 55.5t69 162.5q0 57 -20 97.5t-54.5 66 t-80.5 37.5t-99 12h-29.5t-25.5 -2q-3 -35 -6.5 -82.5t-6.5 -102.5t-5.5 -116t-4.5 -123z" />
<glyph unicode="S" horiz-adv-x="1253" d="M94 16l15 449h231l4 -33q4 -39 16.5 -82t43 -79t83 -59.5t138.5 -23.5q81 0 131.5 31t50.5 88q0 29 -13 53.5t-37 47t-58.5 44t-77.5 44.5l-195 104q-62 33 -118 72t-99 88t-68.5 110.5t-25.5 139.5q0 50 10 100.5t34 97t64 87.5t100.5 71.5t143 48t192.5 17.5 q69 0 137 -4.5t131.5 -12.5t120 -18.5t101.5 -22.5l-29 -448h-231l-4 26q-6 38 -17 81.5t-36.5 81t-70 62.5t-118.5 25q-75 0 -120.5 -32t-45.5 -91q0 -30 14 -56.5t38 -50t57.5 -45t72.5 -42.5l175 -92q64 -33 124 -72.5t107 -90t75.5 -114.5t28.5 -145q0 -73 -31 -146.5 t-100 -132.5t-179.5 -96t-270.5 -37q-68 0 -137 4.5t-133 12t-121.5 18t-102.5 22.5z" />
<glyph unicode="T" horiz-adv-x="1384" d="M55 926l15 471q94 -5 193 -9q42 -2 89.5 -3t97 -2.5t100.5 -2t99 -0.5q118 0 213 0.5t180 2.5t166.5 6.5t171.5 13.5l-30 -477h-195l-8 55q-5 38 -16 62.5t-30.5 39t-49.5 21.5t-74 12l-96 10q-6 -87 -10 -175t-7 -170t-5 -154t-3 -127.5t-1.5 -91.5t-0.5 -46 q0 -50 9 -80.5t25.5 -48.5t40 -26t52.5 -12l43 -7l-6 -194q-45 4 -98 8q-46 3 -106.5 5.5t-131.5 2.5q-69 0 -153.5 -2t-192.5 -14l6 194q27 3 55 6l54 4.5t59 2.5q3 58 7 127t7 142.5t6 148t5 143t3 128t1 103.5v168q-43 4 -68 6l-37.5 3t-17 1h-6.5q-29 0 -54.5 -9.5 t-45 -32t-33.5 -60t-21 -94.5l-6 -49h-195z" />
<glyph unicode="U" horiz-adv-x="1593" d="M57 1202l9 195q42 -5 93 -9q44 -3 103.5 -5.5t130.5 -2.5q69 0 153.5 2t192.5 15l-8 -195l-54 -6q-24 -2 -52.5 -4t-57.5 -2q-11 -299 -15.5 -463.5t-4.5 -212.5q0 -88 22.5 -151t62 -103t92.5 -59t114 -19q70 0 124 22.5t90 64t54.5 100.5t19.5 131q2 128 3 216.5t2 146 t1.5 89.5t0.5 46.5v17.5v4q0 52 -9.5 84.5t-26.5 51t-40.5 27t-52.5 13.5l-41 6l8 195q33 -5 78 -9q38 -3 92.5 -5.5t126.5 -2.5q34 0 70.5 0.5t77 2t86.5 5t100 9.5l-9 -195q-26 -3 -54 -6q-24 -2 -53.5 -4t-58.5 -2l-55 -680q-22 -266 -170 -407.5t-428 -141.5 q-131 0 -235.5 34t-177.5 97.5t-112.5 154t-39.5 202.5q0 23 1 69t3 102.5t4 118t4 116.5t3 97t1 60q0 55 -9 89t-25.5 53.5t-40.5 28t-54 13.5z" />
<glyph unicode="V" horiz-adv-x="1522" d="M2 1202l8 195q44 -5 98 -9q46 -3 107.5 -5.5t132.5 -2.5q69 0 153.5 2t192.5 15l-8 -195q-26 -3 -54 -6q-24 -2 -53.5 -4t-58.5 -2l252 -817h41l195 571q20 60 33.5 104t13.5 72q0 19 -5 32t-15.5 21.5t-26.5 13.5t-37 9l-41 6l8 195q32 -5 75 -9q37 -3 90.5 -5.5 t125.5 -2.5q34 0 70.5 0.5t77 2t86.5 5t100 9.5l-9 -195q-26 -3 -54 -6q-24 -2 -53 -4t-58 -2l-529 -1190l-256 -41l-403 1067q-20 53 -38 84.5t-36.5 49.5t-39.5 25t-46 11z" />
<glyph unicode="W" horiz-adv-x="2021" d="M20 1202l9 195q66 -6 151.5 -11.5t179.5 -5.5q101 0 185 5.5t160 11.5l-9 -195q-38 -6 -74 -8t-71 -4l139 -731h41l242 764l231 37l217 -801h33l129 499q17 67 27 104.5t10 63.5q0 32 -19 46t-59 22l-53 8l8 195q66 -8 144 -12.5t163 -4.5q42 0 76.5 1.5t66 3.5t62 5 t62.5 7l-9 -195q-15 -3 -26.5 -5t-23 -3.5t-24.5 -2t-30 -1.5l-471 -1190l-275 -43l-176 672h-30l-213 -629l-283 -41l-301 1081q-13 48 -30.5 78t-38 46.5t-43.5 23.5t-46 10z" />
<glyph unicode="X" horiz-adv-x="1569" d="M41 -6l8 194q15 3 27.5 4.5l25 3t26 2t30.5 1.5l450 454l-342 428q-25 32 -46 52.5t-39 33.5t-35 19t-35 10l-31 6l8 195q66 -8 145 -12.5t170 -4.5q97 0 183 4.5t162 12.5l-9 -195q-29 -5 -69 -7.5l-72 -4.5l233 -287l80 101q35 45 47.5 72t12.5 50q0 32 -21.5 47 t-58.5 21l-47 8l8 195q66 -8 155.5 -12.5t186.5 -4.5t186 4.5t154 12.5l-8 -195q-29 -5 -49 -6.5t-47 -3.5l-467 -451l352 -432q27 -32 48 -53.5t40 -34.5t36 -19.5t36 -8.5l30 -5l-8 -194q-66 6 -145 11t-170 5q-97 0 -183 -3.5t-161 -12.5l8 194q29 4 69 7.5t72 5.5 l-244 291l-84 -113q-16 -23 -26.5 -39t-17 -29t-9 -24t-2.5 -23q0 -32 20 -47.5t54 -21.5l43 -7l-8 -194q-66 6 -153.5 11t-184.5 5t-183 -4t-151 -12z" />
<glyph unicode="Y" horiz-adv-x="1444" d="M14 1202l9 195q66 -6 155 -11.5t182 -5.5q101 0 186 5.5t161 11.5l-11 -195q-52 -6 -90 -8l-76 -4l242 -424h39l131 225q29 48 42 80.5t13 56.5q0 31 -19.5 45.5t-53.5 20.5l-47 8l8 195q66 -8 136 -12.5t155 -4.5q83 0 162.5 4.5t144.5 12.5l-8 -193q-16 -3 -28.5 -5 t-24.5 -3.5t-24.5 -2t-29.5 -1.5l-475 -682q-1 -30 -1.5 -48t-0.5 -31v-24.5v-27.5q0 -56 9 -90t25.5 -53.5t40.5 -28t54 -12.5l39 -7l-8 -194q-44 4 -97 8q-45 3 -105.5 5.5t-131.5 2.5q-69 0 -154.5 -2t-193.5 -14l8 194q26 3 54 6q24 2 53.5 4.5t58.5 2.5q1 21 3 52.5 t4 67.5t3.5 75t3.5 77l-367 602q-21 34 -40 57t-37 37t-35 20.5t-35 8.5z" />
<glyph unicode="Z" horiz-adv-x="1378" d="M61 -6l9 219l782 956l-303 -20q-40 -2 -64.5 -15t-41.5 -42t-30 -76.5t-30 -118.5h-258l18 500q150 -8 290.5 -12.5t287.5 -4.5q73 0 143.5 1t141 4t142.5 5.5t148 6.5l-14 -240l-788 -934l305 21q72 2 105 16t59 40.5t47 70t36 108.5h259l-59 -499q-130 11 -282 18 q-131 4 -302 6q-73 1 -138 1q-88 0 -160 -1q-126 -2 -185 -5t-118 -5z" />
<glyph unicode="[" horiz-adv-x="688" d="M133 -356l64 1829h473l-2 -173h-228l-53 -1484h227l-8 -172h-228h-245z" />
<glyph unicode="\" horiz-adv-x="1352" d="M127 1473h213l883 -1829h-213z" />
<glyph unicode="]" horiz-adv-x="692" d="M16 -356l7 172h229l51 1484h-227l6 173h477l-65 -1829h-252h-226z" />
<glyph unicode="^" horiz-adv-x="899" d="M61 877l330 514h117l330 -514h-211l-176 274l-177 -274h-213z" />
<glyph unicode="_" horiz-adv-x="1552" d="M150 -303h1187v-98h-1187v98z" />
<glyph unicode="`" horiz-adv-x="655" d="M102 1403q17 12 42.5 34t52 46t50 46.5t36.5 35.5l270 -373l-111 -100z" />
<glyph unicode="a" horiz-adv-x="1069" d="M55 213q0 68 27 118.5t71.5 87t102 60t118.5 37t120.5 19t109.5 6.5q2 14 2 22.5v18.5q0 55 -32 83.5t-89 28.5q-22 0 -48.5 -5.5t-52 -19.5t-47.5 -39.5t-34 -64.5q-24 0 -59 2.5t-68 15.5t-56.5 40t-23.5 75q0 39 17 71t46.5 57.5t69 44t83.5 31t90 18.5t90 6 q92 0 166.5 -16.5t127 -54t81 -99t28.5 -150.5q0 -29 -3.5 -76.5t-7 -96.5t-7 -91.5t-3.5 -60.5q0 -22 6.5 -36.5t16.5 -23.5t22.5 -12.5t24.5 -3.5q17 0 29.5 3t27.5 11l80 -135q-49 -50 -110 -79.5t-133 -29.5q-85 0 -135 43t-68 111q-24 -32 -54.5 -60t-68.5 -49 t-84.5 -33t-103.5 -12q-69 0 -119.5 20t-83.5 53.5t-49.5 76.5t-16.5 88zM344 254q0 -28 20 -46t58 -18q28 0 57 10.5t53 32.5t41.5 57t24.5 83h-16q-33 0 -74.5 -6.5t-77.5 -21t-61 -37t-25 -54.5z" />
<glyph unicode="b" horiz-adv-x="1079" d="M12 1346l6 161q55 2 120 8.5t129.5 16t122.5 21.5t99 24l-104 -844q71 93 153 143t181 50q84 0 143.5 -33t96.5 -86t54 -120.5t17 -137.5q0 -94 -20.5 -173t-56.5 -142.5t-84.5 -112t-105.5 -81t-119.5 -49t-125.5 -16.5q-48 0 -100.5 5t-106 17t-107.5 32t-106 51 q8 91 15.5 191.5t13.5 202t11 201t8.5 188.5t5.5 163.5t2 126.5q0 34 -5.5 68t-21.5 61t-43.5 44.5t-71.5 19.5zM410 201q24 -8 50 -13.5t58 -5.5q44 0 81 22.5t64 62t42.5 93.5t15.5 117q0 84 -36.5 133t-96.5 49q-44 0 -87.5 -15t-78.5 -38z" />
<glyph unicode="c" horiz-adv-x="948" d="M39 406q0 107 36.5 202t104 165.5t163.5 111.5t214 41q74 0 137.5 -18.5t110.5 -50.5t73.5 -75t26.5 -92q0 -97 -73 -145.5t-216 -48.5q-2 41 -7.5 79t-18 67.5t-33.5 47t-53 17.5q-36 0 -65 -18t-49 -52t-31 -81.5t-11 -106.5q0 -64 18 -110.5t51 -76.5t79.5 -44.5 t103.5 -14.5q51 0 115 11t121 34l61 -129q-82 -69 -189.5 -106.5t-232.5 -37.5q-101 0 -181.5 30t-137 86t-87 136t-30.5 179z" />
<glyph unicode="d" horiz-adv-x="1108" d="M37 367q0 127 49 230t133 176t195.5 113t236.5 40h25q1 40 2.5 71t2 57.5t1 49.5t0.5 49q0 94 -33.5 140t-107.5 53l6 161q54 2 119 8.5t129.5 16t123 21.5t99.5 24q-21 -221 -35 -400.5t-22.5 -327.5t-11.5 -269t-3 -224q0 -94 39.5 -141t114.5 -53l-6 -162h-15 q-57 0 -104.5 -2.5t-90.5 -7.5t-83.5 -12.5t-85.5 -18.5l39 211q-27 -38 -62 -73.5t-79.5 -62.5t-98.5 -43t-119 -16q-74 0 -139.5 23t-114 71t-76.5 122t-28 176zM346 393q0 -45 12.5 -80t33 -58.5t45.5 -35.5t50 -12q42 0 86 18t76 56l17 411h-43q-54 0 -104 -21.5 t-88.5 -60.5t-61.5 -94.5t-23 -122.5z" />
<glyph unicode="e" horiz-adv-x="1010" d="M39 406q0 104 32 198.5t93.5 166t151 113.5t204.5 42q98 0 174 -27.5t128 -77t79 -118t27 -150.5q0 -28 -3 -57.5t-6 -54.5q-4 -29 -8 -56q-60 -9 -142 -12.5t-175 -3.5q-31 0 -65 0.5t-67.5 1t-65 1t-56.5 1.5q7 -37 26 -68.5t50 -54t73.5 -35t98.5 -12.5q51 0 114.5 9 t120.5 32l64 -125q-82 -69 -184.5 -106.5t-227.5 -37.5q-104 0 -185.5 31.5t-137 88.5t-84.5 136.5t-29 174.5zM350 539q39 1 84.5 5t85.5 8t68 7.5t33 5.5v15q0 55 -27.5 91t-81.5 36q-26 0 -51 -10t-47 -31t-38.5 -52.5t-25.5 -74.5z" />
<glyph unicode="f" horiz-adv-x="797" d="M12 745l6 156h179l6 123q3 69 29 137t66.5 129t92.5 114t107.5 91t111 60t103.5 22q77 0 121.5 -38.5t44.5 -113.5q0 -29 -6 -51.5t-16.5 -41t-24.5 -34.5t-29 -32q-34 20 -65.5 31.5t-69.5 11.5q-81 0 -118.5 -49.5t-43.5 -145.5l-12 -213q43 1 89 4t87 7t73.5 7.5 t49.5 6.5l-41 -238q-59 1 -111 2q-45 1 -90 2.5t-70 3.5q-2 -35 -3 -75t-1 -81v-80v-73q0 -47 8 -87.5t25 -70.5t43 -48t63 -19l-6 -162h-22q-132 0 -239 -8t-208 -33q16 156 28.5 347t23.5 421q-20 1 -50.5 4t-59.5 6q-34 4 -71 8z" />
<glyph unicode="g" horiz-adv-x="1178" d="M18 -346q0 46 16 84.5t44 71.5t64 62.5t77 57.5q-15 6 -31.5 15.5t-30.5 24.5t-23 36.5t-9 52.5q0 36 14.5 68.5t36.5 62t48 56.5t50 51q-54 18 -91 46t-59.5 63.5t-32 75.5t-9.5 81q0 75 33 140.5t92 113.5t141.5 75.5t181.5 27.5q71 0 126 -9.5t96 -24.5t69 -33t45 -36 q16 20 35 38.5t41 33t47.5 23t54.5 8.5q62 0 98 -32.5t36 -90.5q0 -42 -15.5 -75t-40.5 -54q-26 18 -55.5 26t-65.5 8q-20 0 -39 -3.5t-34 -12.5q2 -14 3 -34.5t1 -33.5q0 -81 -36 -144.5t-97.5 -108t-143.5 -68t-174 -23.5h-26q-9 -11 -14.5 -28t-1.5 -33.5t20 -30.5 t51 -18l252 -31q123 -18 181 -68t58 -145q0 -57 -25 -114.5t-69.5 -110t-107 -98t-137.5 -79t-160.5 -52.5t-175.5 -19q-149 0 -228.5 54t-79.5 153zM309 -238q0 -22 6.5 -41.5t22.5 -33.5t41 -22.5t63 -8.5q33 0 72.5 9.5t73.5 27.5t57 44t23 60q0 11 -3.5 23t-15.5 23.5 t-34.5 21t-59.5 14.5l-182 23q-28 -26 -46 -63.5t-18 -76.5zM395 582q0 -20 6 -42.5t20.5 -41.5t37.5 -31t57 -12q28 0 48.5 11.5t33.5 29.5t19 40.5t6 45.5q0 20 -6.5 43.5t-20.5 44t-36.5 34t-53.5 13.5t-52 -13t-34 -32.5t-19 -43.5t-6 -46z" />
<glyph unicode="h" horiz-adv-x="1153" d="M12 1346l6 161q55 2 120 8.5t129.5 16t122.5 21.5t99 24l-104 -850q35 40 74 76t83.5 63.5t95.5 43.5t110 16q60 0 109 -21t83.5 -61.5t53 -101t18.5 -138.5q0 -33 -3 -73.5t-6.5 -78.5t-6.5 -69t-3 -45q0 -37 8 -69t25.5 -56t44 -37.5t62.5 -13.5l-7 -162h-20 q-72 0 -130.5 -2.5t-111 -7.5t-102.5 -14t-105 -21q13 72 24 152t18.5 155.5t11.5 140t4 105.5q0 83 -29 117t-86 34q-45 0 -88 -15t-74 -34q-2 -22 -4.5 -59.5t-5.5 -85.5q-2 -49 -3 -105q-1 -38 -1 -77v-39q0 -60 3 -122.5t9 -121.5q-57 0 -105.5 -4t-91 -11t-80 -15 t-73.5 -15q15 84 25.5 181t18 201t12.5 211.5t7.5 213t3.5 204.5t1 187q0 94 -33.5 140t-108.5 53z" />
<glyph unicode="i" horiz-adv-x="616" d="M27 694l6 162q136 5 254.5 24.5t220.5 45.5q-22 -143 -39.5 -290.5t-17.5 -283.5q0 -100 38.5 -145t100.5 -45l-6 -162h-23q-132 0 -240.5 -8t-209.5 -33q10 70 20.5 137.5t18.5 133.5t13 132t5 134q0 99 -33.5 145.5t-107.5 52.5zM164 1235q0 46 15 79.5t39 55 t55.5 31.5t64.5 10q32 0 63.5 -10t56 -31.5t39.5 -55t15 -79.5q0 -42 -13.5 -76t-37 -58.5t-55 -38t-68.5 -13.5t-68.5 13.5t-55 38t-37 58.5t-13.5 76z" />
<glyph unicode="j" horiz-adv-x="592" d="M-168 -401q0 29 6 51.5t16.5 41t24.5 34.5t29 32q34 -20 65.5 -31.5t69.5 -11.5q54 0 75.5 49.5t26.5 145.5q7 120 11 214.5t6.5 166t3 122t0.5 83.5q0 99 -33.5 145.5t-107.5 52.5l6 162q136 5 254.5 24.5t220.5 45.5q-25 -156 -35.5 -358.5t-15.5 -440.5l-2 -107 q-2 -69 -23 -138.5t-55.5 -133t-79.5 -118.5t-95 -95.5t-102 -64t-100 -23.5q-77 0 -121.5 38.5t-44.5 113.5zM162 1235q0 46 15 79.5t39 55t55.5 31.5t64.5 10q32 0 63.5 -10t56 -31.5t39.5 -55t15 -79.5q0 -42 -13.5 -76t-37 -58.5t-55 -38t-68.5 -13.5t-68.5 13.5t-55 38 t-37 58.5t-13.5 76z" />
<glyph unicode="k" horiz-adv-x="1090" d="M12 1346l6 161q55 2 120 8.5t129.5 16t122.5 21.5t99 24l-77 -1047q45 85 89 158t92 125.5t102.5 82.5t121.5 30q42 0 74.5 -14.5t55 -38.5t34.5 -55.5t12 -65.5q0 -41 -15.5 -81t-49.5 -75q-20 12 -44 18.5t-55 6.5q-58 0 -115 -22t-98 -75l119 -153q39 -51 73.5 -90.5 t67.5 -68.5t65 -47t67 -26l-9 -139q-34 -12 -68.5 -17.5t-68.5 -5.5q-45 0 -91.5 11t-93 36.5t-92.5 67t-89 103.5l-82 114q-3 -62 -3.5 -122.5t-0.5 -100.5v-86q-105 0 -181 -12.5t-139 -28.5q15 160 26.5 326.5t20 324t13 297.5t4.5 246q0 94 -33.5 140t-108.5 53z" />
<glyph unicode="l" horiz-adv-x="588" d="M12 1346l6 161q55 2 120 8.5t129.5 16t122.5 21.5t99 24q-27 -217 -40.5 -398.5t-19.5 -330t-6.5 -266t-0.5 -205.5q0 -39 8 -77.5t25 -69t43 -49.5t63 -19l-6 -162h-23q-66 0 -125 -2t-113.5 -6.5t-105.5 -12.5t-102 -20q25 187 38.5 359.5t20 325t8 281.5t1.5 228 q0 94 -33.5 140t-108.5 53z" />
<glyph unicode="m" horiz-adv-x="1668" d="M20 694l7 162q54 2 111 8.5t111.5 16t104 21.5t90.5 24l-38 -199q86 103 181 151t179 48q36 0 69 -8t61 -26t50 -48t37 -74q25 24 57 51.5t70 50.5t80.5 38.5t87.5 15.5q60 0 106 -17t77.5 -55.5t48 -100t16.5 -149.5q-2 -81 -10 -168.5t-7 -101.5v-7q0 -29 7 -58 q8 -32 25.5 -56t43.5 -37.5t62 -13.5l-6 -162h-21q-72 0 -130.5 -2t-110.5 -6.5t-102 -12.5t-105 -20q13 72 23.5 151.5t19 154.5t12.5 138.5t6 151.5q0 43 -22 73.5t-68 30.5q-17 0 -36 -4t-38 -11t-37 -16t-33 -18q-3 -22 -5.5 -64t-4.5 -95.5t-3 -114.5q-1 -41 -1 -81 q1 -21 1 -41q0 -60 2.5 -116t8.5 -98q-48 0 -96.5 -3.5t-93.5 -9t-84 -13t-68 -15.5q8 65 16 144.5t14.5 160.5t10.5 157t4 134q0 45 -21.5 74.5t-68.5 29.5q-16 0 -35.5 -3.5t-39 -9.5t-39 -15t-35.5 -21q-4 -49 -7 -105.5t-4 -115.5t-1 -117.5t1 -110t3.5 -93.5t5.5 -68 q-48 0 -98 -3.5t-96.5 -9t-86.5 -13t-69 -15.5q13 72 22.5 150t16.5 150t10.5 134t3.5 103q0 100 -33.5 146t-108.5 52z" />
<glyph unicode="n" horiz-adv-x="1176" d="M20 694l7 162q120 5 224 25t193 45l-38 -199q34 39 73.5 75t85 63.5t98 44t111.5 16.5q128 0 194 -82t66 -240q0 -33 -3 -73.5t-6 -78.5t-6 -69t-3 -45q0 -37 8 -69t25.5 -56t43.5 -37.5t62 -13.5l-6 -162h-21q-72 0 -130.5 -2t-110.5 -6.5t-102 -12.5t-105 -20 q13 72 23.5 151.5t18 154.5t11.5 138.5t4 104.5q0 43 -7.5 72t-21.5 46.5t-35.5 25t-49.5 7.5q-45 0 -88 -15t-74 -34q-2 -22 -4 -59.5t-4 -85.5q-2 -49 -3 -105q-1 -38 -1 -77q1 -19 1 -39q0 -60 1.5 -122.5t5.5 -121.5q-58 0 -106.5 -3.5t-90.5 -9t-79.5 -13t-71.5 -15.5 q13 72 22.5 150t16.5 150t10.5 134t3.5 103q0 45 -7 80.5t-23.5 60.5t-43.5 39.5t-68 17.5z" />
<glyph unicode="o" horiz-adv-x="1051" d="M39 414q0 99 36.5 191.5t104 163.5t163.5 114t214 43q117 0 201 -32.5t139 -89.5t81 -134t26 -166q0 -111 -41.5 -208t-111.5 -168t-162.5 -112t-194.5 -41q-127 0 -214 35.5t-140.5 96t-77 140t-23.5 167.5zM348 449q0 -58 13.5 -104.5t36.5 -79.5t54 -50.5t66 -17.5 q37 0 69.5 17.5t56 50.5t37 79.5t13.5 104.5q0 60 -13.5 107.5t-37 81t-56 51.5t-69.5 18q-35 0 -66 -18t-54 -51.5t-36.5 -81t-13.5 -107.5z" />
<glyph unicode="p" horiz-adv-x="1110" d="M18 694l7 162q54 2 110.5 8.5t110 16t102.5 21.5t90 24l-37 -193q46 55 91.5 92.5t90.5 59.5t89 31.5t86 9.5q79 0 136.5 -31t94.5 -82.5t54.5 -117.5t17.5 -136q0 -146 -45 -255.5t-119 -182.5t-168.5 -109.5t-193.5 -36.5q-9 0 -23.5 0.5t-29.5 1t-29.5 1.5t-24.5 2 l-2 -93v-11q0 -33 5 -68q6 -41 21.5 -75t43 -56t69.5 -23l-6 -162h-22q-133 0 -241.5 -10t-209.5 -35q16 143 29.5 290.5t23.5 286t15.5 260t5.5 212.5q0 94 -31 143t-111 55zM434 197q31 -8 60.5 -11.5t58.5 -3.5q41 0 77 23t63 63.5t43 95.5t16 119q0 84 -37 130t-97 46 q-43 0 -85 -14.5t-76 -34.5q-6 -63 -10 -135t-7 -134q-4 -73 -6 -144z" />
<glyph unicode="q" horiz-adv-x="1055" d="M37 362q0 124 47.5 228t129.5 178.5t192 116t235 41.5q111 0 198.5 -16.5t147.5 -41.5q-14 -128 -24.5 -265t-18 -269.5t-11 -253.5t-3.5 -215q0 -39 8 -76.5t25 -67t43 -48t63 -19.5l-6 -162h-27q-132 0 -238.5 -10t-207.5 -35q9 77 16.5 149.5t14 145.5t12 149 t10.5 160q-43 -32 -103 -54t-132 -22q-75 0 -142.5 22.5t-118.5 69.5t-80.5 120.5t-29.5 174.5zM346 391q0 -48 13 -82t34.5 -56.5t49.5 -33t57 -10.5q38 0 75 19.5t74 50.5l17 415h-37q-56 0 -107.5 -21.5t-90.5 -61t-62 -95.5t-23 -125z" />
<glyph unicode="r" horiz-adv-x="897" d="M20 694l7 162q54 2 111 8.5t111.5 16t104 21.5t90.5 24l-38 -199q31 45 67 82t74 63t76.5 40t76.5 14q84 0 130.5 -47t46.5 -134q0 -62 -23.5 -101t-60.5 -71q-16 14 -37.5 26.5t-45.5 22.5t-49.5 15.5t-50.5 5.5q-16 0 -36.5 -1.5t-41.5 -5t-39 -8.5t-30 -12 q-2 -20 -4.5 -56t-4.5 -81.5t-3.5 -98.5t-1.5 -106q0 -66 1 -136t9 -138q-106 0 -196.5 -12.5t-153.5 -28.5q13 72 22.5 150t16.5 150t10.5 134t3.5 103q0 100 -33.5 146t-108.5 52z" />
<glyph unicode="s" horiz-adv-x="922" d="M37 176q0 66 38.5 109t106.5 61q18 -23 45 -51.5t63 -54t80 -43t95 -17.5q34 0 58 16t24 42q0 16 -19.5 29.5t-49 26t-64.5 24.5t-66 24q-71 29 -125 57.5t-90 61.5t-54 73.5t-18 94.5q0 51 24.5 103.5t79 95.5t142 70.5t213.5 27.5q77 0 141 -12.5t110 -37.5t71.5 -61 t25.5 -84q0 -62 -36.5 -112.5t-102.5 -67.5q-29 26 -62 56t-69 55.5t-75 42t-79 16.5q-32 0 -50.5 -14t-18.5 -37q0 -15 15 -28.5t39 -25.5t53 -23t57 -22l26 -10q81 -32 137 -63t91 -65.5t51 -74.5t16 -90q0 -54 -27.5 -107t-85.5 -94t-146.5 -66.5t-209.5 -25.5 q-79 0 -144.5 13t-112 38.5t-72 63t-25.5 86.5z" />
<glyph unicode="t" horiz-adv-x="782" d="M0 745l6 156h164q1 36 1.5 66t1 58.5l1 57t0.5 60.5l328 78q-13 -82 -21 -162t-14 -158q33 1 68 3.5t69.5 5.5t65.5 7t57 9l-33 -238l-241 8q-7 -91 -11 -180t-4 -158q0 -38 10 -62.5t25.5 -38.5t34 -20t35.5 -6q32 0 62 11.5t50 25.5l82 -137q-33 -35 -75 -64t-89 -50 t-96 -32.5t-96 -11.5q-79 0 -127 25t-73.5 66.5t-33.5 95t-8 110.5q0 34 2.5 84.5t6 110.5t8 127.5t8.5 136.5z" />
<glyph unicode="u" horiz-adv-x="1184" d="M18 690l7 162q67 2 128.5 9t117.5 17t108.5 22.5t103.5 25.5q-11 -65 -20.5 -141.5t-17.5 -152.5t-12.5 -146t-4.5 -121q0 -35 10 -58.5t27 -38t41 -20.5t53 -6q42 0 81 15t67 32q1 21 2.5 56t3 79.5t2 95.5t0.5 103q0 62 -0.5 127t-5.5 131q105 0 195 14.5t153 30.5 q-16 -88 -26.5 -175.5t-16.5 -164t-8 -137t-2 -93.5q0 -94 39.5 -141t113.5 -53l-6 -162h-14q-58 0 -105.5 -2.5t-90 -7.5t-83.5 -12.5t-86 -18.5l39 209q-27 -35 -70.5 -69t-97 -62t-113.5 -45t-120 -17t-111 19t-88.5 57.5t-58.5 96t-21 135.5q0 66 7 129.5t7 117.5 q0 31 -8 58.5t-23.5 49t-39.5 35.5t-56 17z" />
<glyph unicode="v" horiz-adv-x="1028" d="M10 901h350q23 -92 44 -172t42.5 -158.5t45.5 -160.5t53 -177q30 51 53 104.5t38.5 104t23.5 96t8 80.5q0 72 -19.5 127t-50.5 103q24 20 45.5 34.5t43.5 24.5t46.5 14.5t54.5 4.5q93 0 139 -48.5t46 -142.5q0 -66 -22.5 -148t-68 -175.5t-116 -197.5t-166.5 -214h-297 q-30 116 -61 228.5t-66 223.5t-75.5 223t-90.5 226z" />
<glyph unicode="w" d="M10 901h334l117 -575l201 575h178l188 -651q40 80 64 171t24 179q0 125 -78 248q23 19 44.5 33.5t44 24.5t47.5 15t57 5q42 0 77 -14.5t60 -41.5t39 -66.5t14 -90.5q0 -66 -19.5 -143t-61.5 -166t-109.5 -189.5t-163.5 -214.5l-233 -41l-142 457l-145 -416l-271 -41 q-30 121 -62 247t-65.5 248t-68 236t-70.5 211z" />
<glyph unicode="x" horiz-adv-x="1026" d="M14 901h394q46 -80 96.5 -162t93.5 -151q12 10 20.5 24t14.5 29.5t9 31t3 29.5q0 38 -13.5 77t-47.5 81q43 31 93.5 48.5t110.5 17.5q46 0 80 -14t56 -37.5t32.5 -54t10.5 -62.5q0 -53 -21.5 -98t-57.5 -85.5t-83 -76t-98 -68.5q52 -75 90.5 -129t72 -101t67 -93.5 t75.5 -106.5h-398q-48 80 -92.5 157.5t-95.5 157.5q-25 -27 -41 -56.5t-16 -70.5q0 -40 14.5 -75t48.5 -72q-42 -28 -92.5 -47t-110.5 -19q-88 0 -131 46.5t-43 128.5q0 47 21 93t57 88t83.5 78t100.5 64z" />
<glyph unicode="y" horiz-adv-x="1044" d="M-82 -385q0 25 7 50t18.5 47.5t27 41.5t33.5 31q35 -26 68 -37.5t73 -11.5t74.5 13.5t63 35t51 48t37.5 52.5q-79 249 -175.5 508t-193.5 508h363q12 -54 29 -118.5t36 -133.5t39 -138t39 -131t36 -114t29 -86q14 33 30 76.5t29.5 91.5t22.5 98t9 95q0 89 -18.5 168.5 t-55.5 138.5q49 38 94.5 58t103.5 20q42 0 77 -11.5t60.5 -36t39.5 -62.5t14 -91q0 -83 -30.5 -187t-88 -225.5t-141.5 -258.5t-191 -285q-45 -63 -96 -121t-106 -103t-112.5 -71.5t-115.5 -26.5q-44 0 -78 12.5t-56.5 35t-34 53t-11.5 67.5z" />
<glyph unicode="z" horiz-adv-x="1032" d="M41 152q68 66 142 144t143 155t126.5 148t92.5 122q-74 0 -127 -15t-91.5 -40.5t-66 -60.5t-49.5 -75q-21 7 -45.5 24.5t-45.5 42.5t-35.5 57t-14.5 69q0 46 16.5 83.5t47.5 64t75.5 41t99.5 14.5q44 0 93 -5t96.5 -11.5t91 -11.5t76.5 -5q45 0 96.5 6.5t105.5 26.5 l103 -195q-60 -51 -119.5 -115t-118.5 -133.5t-118 -141.5t-119 -140q79 0 134.5 11.5t95 33t67 52t51.5 67.5q25 -15 47 -36.5t38.5 -47t26 -54t9.5 -59.5q0 -44 -16.5 -79.5t-47.5 -61t-75 -39t-99 -13.5q-48 0 -93 6t-89.5 13.5t-90.5 13.5t-96 6q-46 0 -84 -6.5 t-66 -14.5t-44.5 -14t-18.5 -4z" />
<glyph unicode="{" horiz-adv-x="688" d="M39 444l4 172l78 33q37 15 58 40t31.5 67.5t13.5 106t3 155.5q0 81 20 154.5t68 134t128.5 106t201.5 70.5l43 -144l-78 -39q-32 -16 -50 -36.5t-27 -49t-11 -68t-2 -93.5v-80q0 -59 -5.5 -122t-25 -122t-59 -111.5t-106.5 -91.5q52 -32 85 -72.5t51.5 -87t25 -97 t6.5 -101.5q0 -66 -6.5 -133.5t-6.5 -138.5q0 -23 2.5 -43t10.5 -38.5t24 -34.5t43 -30l72 -37l-53 -143q-111 22 -185.5 62.5t-119.5 95.5t-64 121t-19 139q0 49 6.5 108t6.5 121q0 35 -2.5 63.5t-11.5 52t-27 42t-49 33.5z" />
<glyph unicode="|" horiz-adv-x="463" d="M131 -401v1955h201v-1955h-201z" />
<glyph unicode="}" horiz-adv-x="688" d="M-4 -287l78 39q31 16 49 36.5t27 49.5t11.5 68.5t2.5 93.5v80q0 59 5.5 122t25 122t58.5 111.5t107 90.5q-52 31 -84.5 72.5t-51 88t-25 97t-6.5 101.5q0 66 6 133.5t6 138.5q0 22 -2.5 42.5t-10.5 39t-24 34.5t-43 30l-72 36l53 144q111 -23 185.5 -63.5t119.5 -95 t64 -120.5t19 -139q0 -50 -6.5 -108.5t-6.5 -120.5q0 -36 2.5 -64.5t11.5 -51.5t27 -41.5t49 -33.5l74 -37l-4 -172l-78 -33q-37 -15 -58 -40t-31.5 -67t-13.5 -105.5t-3 -155.5q0 -81 -20 -154.5t-68 -134.5t-128.5 -106.5t-201.5 -69.5z" />
<glyph unicode="~" horiz-adv-x="1024" d="M61 498q19 38 46.5 82.5t61 82.5t73 63.5t84.5 25.5q48 0 102.5 -17.5t108 -38t103 -38t87.5 -17.5q22 0 46.5 16.5t44.5 36.5q24 24 46 54l99 -78q-20 -39 -46.5 -82.5t-60 -81t-72.5 -62t-84 -24.5q-48 0 -102.5 17t-108 38t-103 38t-87.5 17q-23 0 -46.5 -17.5 t-43.5 -37.5q-23 -25 -45 -55z" />
<glyph unicode="&#xa1;" horiz-adv-x="555" d="M76 -510q12 82 22.5 164t19.5 159.5t17 149.5t14 135q15 147 25 279h201q3 -132 7 -279q2 -63 4.5 -135t6.5 -149.5t8.5 -159.5t10.5 -164q-9 1 -26.5 1.5t-40 1t-48.5 1t-53 0.5t-53 -0.5t-48.5 -1t-39.5 -1t-27 -1.5zM113 739q0 42 13.5 76t36.5 59t55 38.5t69 13.5 t68.5 -13.5t55 -38.5t37 -59t13.5 -76q0 -46 -15 -79.5t-39 -55t-55.5 -31.5t-64.5 -10q-32 0 -63.5 10t-56 31.5t-39.5 55t-15 79.5z" />
<glyph unicode="&#xa2;" horiz-adv-x="948" d="M39 406q0 87 24.5 166.5t70.5 145t112 113.5t149 72v195h232l-13 -176q63 -7 116.5 -28t92 -51.5t60.5 -69.5t22 -83q0 -97 -73 -145.5t-216 -48.5q-2 41 -7.5 79t-18 67.5t-33.5 47t-53 17.5q-36 0 -65 -18t-49 -52t-31 -81.5t-11 -106.5q0 -64 18 -110.5t51 -76.5 t79.5 -44.5t103.5 -14.5q51 0 115 11t121 34l61 -129q-65 -56 -145 -89.5t-172 -45.5v-215h-232l12 219q-75 15 -134.5 50t-101 88.5t-63.5 124t-22 155.5z" />
<glyph unicode="&#xa3;" horiz-adv-x="1157" d="M41 100q67 67 111 130t69 125.5t35 127t10 135.5q0 14 -1 28t-3 28l-145 16l6 187h98q-5 21 -9 38.5t-7 35t-4.5 36t-1.5 39.5q0 64 25 118.5t68 99.5t100 80t122.5 59t135 36.5t136.5 12.5q147 0 218 -56t71 -153q0 -91 -57 -141.5t-162 -55.5q-6 45 -21 84.5t-39.5 69 t-59 46.5t-79.5 17q-41 0 -69 -14.5t-45 -39.5t-25 -58.5t-8 -71.5q0 -42 4.5 -89.5t13.5 -92.5q55 1 113.5 2.5t110 4t93 5.5t62.5 8l-80 -244q-62 -6 -135 -6h-60t-63 2q3 -23 4.5 -39.5t1.5 -31.5q0 -51 -13.5 -98t-35 -89.5t-48.5 -80.5t-54 -70q24 16 52 28 q24 11 55.5 20t66.5 9q41 0 82 -11t80 -24t73.5 -24t63.5 -11q35 0 67 18t72 50l101 -141q-27 -28 -60 -59.5t-72 -58t-84.5 -44t-97.5 -17.5q-60 0 -118 20.5t-114 45t-110 45t-106 20.5q-23 0 -44 -6.5t-36 -17.5l-123 -123z" />
<glyph unicode="&#xa4;" horiz-adv-x="1444" d="M61 225l177 174q-42 66 -65 142t-23 157q0 85 24 163.5t68 146.5l-181 180l160 160l180 -181q65 44 140.5 68.5t156.5 24.5q85 0 162 -24.5t144 -68.5l180 181l159 -160l-180 -180q45 -68 69.5 -146.5t24.5 -163.5q0 -81 -23 -157t-67 -142l176 -174l-159 -159l-172 172 q-68 -47 -147.5 -72t-166.5 -25q-85 0 -162 26t-143 71l-172 -172zM377 705q0 -69 25.5 -130t70 -106.5t103.5 -72.5t126 -27q69 0 128.5 27t104 72.5t70 106.5t25.5 130t-25.5 130.5t-70 107t-104 72.5t-128.5 27q-67 0 -126 -27t-103.5 -72.5t-70 -107t-25.5 -130.5z" />
<glyph unicode="&#xa5;" horiz-adv-x="1581" d="M41 1202l8 195q66 -6 155 -11.5t183 -5.5q100 0 185.5 5.5t160.5 11.5l-10 -195q-53 -6 -91 -8t-75 -4l242 -424h39l131 225q29 48 42 80.5t13 56.5q0 31 -20 45.5t-54 20.5l-47 8l8 195q66 -8 136 -12.5t155 -4.5q84 0 163 4.5t144 12.5l-8 -193q-16 -3 -28.5 -5 t-24 -3.5t-24 -2t-29.5 -1.5l-252 -361h209l-6 -172q-49 -1 -104 -1q-47 -1 -104.5 -1t-117.5 -2l-100 -143h421l-6 -172q-55 -1 -121 -1q-57 -1 -132.5 -1t-163.5 -2q4 -42 14.5 -67.5t27 -40.5t38.5 -22t49 -11l38 -7l-8 -194q-43 4 -96 8q-45 3 -106 5.5t-132 2.5 q-69 0 -154 -2t-194 -14l8 194q26 3 54 6q24 2 53.5 4.5t58.5 2.5l9 127q-115 -3 -220.5 -9t-187.5 -12l8 205h381l-80 133q-78 -3 -154 -7.5t-141 -10.5l9 204h172l-148 244q-21 34 -40 57t-37 37t-35 20.5t-35 8.5z" />
<glyph unicode="&#xa6;" horiz-adv-x="489" d="M143 295h203v-696h-203v696zM143 858v696h203v-696h-203z" />
<glyph unicode="&#xa7;" horiz-adv-x="936" d="M47 809q0 64 14.5 135.5t42.5 140.5t69.5 132t95.5 111t120 76t143 28q59 0 103 -12.5t72.5 -34t42.5 -51.5t14 -64q0 -24 -9.5 -50.5t-32.5 -49.5t-61 -40.5t-94 -23.5q-5 42 -15 70.5t-23.5 46.5t-29.5 26t-32 8q-12 0 -23.5 -5t-21 -15t-15.5 -23.5t-6 -31.5 q0 -53 37.5 -116t102.5 -148q59 -78 115 -156.5t99.5 -161t70 -169.5t26.5 -181q0 -70 -16.5 -148.5t-48.5 -154.5t-78 -145.5t-105.5 -122t-131.5 -84t-155 -31.5q-59 0 -102.5 12.5t-72.5 34.5t-43.5 52t-14.5 65q0 24 10 50.5t34 50.5t63 42.5t98 24.5q4 -45 15 -75 t24.5 -48.5t29 -26.5t29.5 -8q35 0 57.5 24.5t22.5 69.5q0 40 -11.5 79t-33.5 80.5t-53.5 88t-71.5 102.5q-59 83 -105.5 154t-78.5 143t-49 151.5t-17 178.5zM229 866q0 -59 13.5 -114.5t36 -108t51.5 -101t59 -93.5q54 -83 96.5 -145t74 -110.5t52 -86.5t29.5 -72 q6 28 8 58.5t2 62.5q0 59 -13.5 114.5t-36 108t-51 101t-58.5 93.5q-54 82 -97 144.5t-74.5 111t-51.5 86.5t-29 72q-7 -28 -9 -58.5t-2 -62.5z" />
<glyph unicode="&#xa8;" horiz-adv-x="870" d="M102 1257q0 33 10 63t29 52.5t46 35.5t61 13q28 0 53 -10t44 -29t29.5 -47t10.5 -65q0 -34 -9.5 -64.5t-27.5 -53.5t-45 -36.5t-61 -13.5q-29 0 -54.5 10t-44.5 29.5t-30 48.5t-11 67zM485 1257q0 33 10 63t29.5 52.5t46.5 35.5t62 13q28 0 52.5 -10t43 -29t29 -47 t10.5 -65q0 -34 -9.5 -64.5t-28.5 -53.5t-46 -36.5t-61 -13.5q-28 0 -53 10t-44 29.5t-30 48.5t-11 67z" />
<glyph unicode="&#xa9;" horiz-adv-x="1620" d="M80 696q0 101 26.5 195t74 175.5t115 148.5t149 115t175.5 74t195 26t195 -26t175.5 -74t148.5 -115t114.5 -148.5t73.5 -175.5t26 -195t-26 -195t-73.5 -175t-114.5 -148t-148.5 -115t-175.5 -74t-195 -26t-195 26t-175.5 74t-149 115t-115 148t-74 175t-26.5 195z M152 696q0 -91 24 -175.5t67 -158t104 -134.5t134.5 -104t158 -67t175.5 -24t175 24t158 67t134.5 104t103.5 134.5t67 158t24 175.5t-24 176t-67 158.5t-103.5 134.5t-134.5 104t-158 67t-175 24t-175.5 -24t-158 -67t-134.5 -104t-104 -134.5t-67 -158.5t-24 -176z M381 688q0 105 37.5 188t103 140t155 87t193.5 30q46 0 83.5 -3t70 -7.5t60.5 -10.5t55 -12l-6 -262h-162v8q0 27 -4.5 54.5t-19 49t-42.5 35.5t-76 14q-43 0 -82 -18t-69 -54t-48 -89t-18 -123q0 -82 26.5 -138.5t69.5 -91t97 -50t108 -15.5q56 0 107.5 6.5t85.5 17.5 l33 -120q-29 -10 -63.5 -19.5t-73 -16.5t-79.5 -11.5t-81 -4.5q-96 0 -180 27t-146.5 79.5t-98.5 130.5t-36 179z" />
<glyph unicode="&#xaa;" horiz-adv-x="881" d="M117 1025q0 53 20.5 92t55 67t79 46.5t92 29t93.5 14.5t85 5q1 11 1 17.5v14.5q0 42 -24.5 64t-69.5 22q-17 0 -37.5 -4t-40 -15t-36.5 -30.5t-26 -50.5q-19 0 -46 2t-52.5 12t-44 31t-18.5 58q0 31 13.5 55.5t36 44.5t53 34t65 24t70 14.5t69.5 4.5q71 0 128.5 -13 t98.5 -42t63 -76.5t22 -116.5q0 -22 -3 -59t-5.5 -75t-5 -71t-2.5 -46q0 -17 5 -28.5t12.5 -18.5t17.5 -9.5t19 -2.5q13 0 22.5 2t21.5 9l62 -105q-38 -39 -85 -61.5t-103 -22.5q-66 0 -104.5 33t-52.5 86q-19 -25 -42.5 -46.5t-53 -38t-65.5 -25.5t-80 -9q-54 0 -93 15.5 t-64.5 41t-38 59t-12.5 68.5zM340 1057q0 -22 15.5 -36t45.5 -14q21 0 43.5 8t41 25t32.5 44.5t19 64.5h-12q-26 0 -58 -5t-60 -16.5t-47.5 -29t-19.5 -41.5z" />
<glyph unicode="&#xab;" horiz-adv-x="995" d="M41 524l539 465l88 -86l-303 -379l274 -379l-88 -86zM463 524l368 353l66 -66l-188 -287l168 -288l-68 -66z" />
<glyph unicode="&#xac;" horiz-adv-x="1106" d="M109 549v188h880v-413h-188v225h-692z" />
<glyph unicode="&#xad;" horiz-adv-x="776" d="M102 389l7 229h563l-6 -229h-564z" />
<glyph unicode="&#xae;" horiz-adv-x="1090" d="M86 958q0 98 37 184t101 150t149.5 101t183.5 37q97 0 183 -37t150 -101t101 -150t37 -184t-37 -183.5t-101 -149.5t-150 -101t-183 -37q-98 0 -183.5 37t-149.5 101t-101 149.5t-37 183.5zM143 956q0 -85 32.5 -160t89 -131.5t131.5 -89t159 -32.5q86 0 161.5 32.5 t132 89t89.5 131.5t33 160t-33 160.5t-89.5 132t-132 89t-161.5 32.5q-84 0 -159 -32.5t-131.5 -89t-89 -132t-32.5 -160.5zM291 696l4 76q10 1 21 3q9 1 21 2t23 1q2 34 4 79t3.5 90t2.5 86t1 67q0 21 -3.5 34t-10 20t-16.5 10.5t-22 6.5l-14 5l2 75q20 -1 39 -2 q17 -1 36 -1.5t36 -0.5q34 0 74.5 3t80.5 3q101 0 153 -44t52 -122q0 -55 -27.5 -91t-70.5 -56l37 -66q29 -54 61.5 -81t57.5 -27l-5 -68q-6 -1 -13 -2q-6 -1 -15.5 -1.5t-20.5 -0.5q-57 0 -102.5 28.5t-85.5 102.5l-47 86h-47q-2 -17 -2 -34v-29q0 -21 3.5 -34t10.5 -20.5 t17 -11t22 -6.5l14 -4l-4 -76q-18 1 -39 3q-18 1 -42 2t-52 1t-61 -0.5t-76 -5.5zM502 995q6 -2 13 -2h15q48 0 76.5 22t28.5 64q0 46 -30.5 65t-72.5 19h-22q-2 -28 -4 -73t-4 -95z" />
<glyph unicode="&#xaf;" horiz-adv-x="1182" d="M262 1108l6 188h566l-7 -188h-565z" />
<glyph unicode="&#xb0;" horiz-adv-x="735" d="M102 1151q0 59 22 110.5t60.5 89.5t91.5 59.5t115 21.5q59 0 110.5 -21.5t89.5 -59.5t59.5 -89.5t21.5 -110.5q0 -62 -21.5 -115t-59.5 -91.5t-89.5 -60.5t-110.5 -22q-62 0 -115 22t-91.5 60.5t-60.5 91.5t-22 115zM263 1151q0 -54 34 -90.5t94 -36.5q26 0 48 9.5t38 27 t25 40.5t9 50q0 53 -34 88t-86 35q-60 0 -94 -35t-34 -88z" />
<glyph unicode="&#xb1;" horiz-adv-x="1157" d="M104 59v189h943v-189h-943zM104 737v189h377v377h189v-377h377v-189h-377v-377h-189v377h-377z" />
<glyph unicode="&#xb2;" horiz-adv-x="713" d="M80 909q54 56 111.5 114.5t105 115t78.5 108.5t31 96q0 42 -20 68.5t-62 26.5q-34 0 -57 -25t-23 -65q0 -8 1 -13.5t3 -13.5q-14 -11 -32.5 -17t-35.5 -6q-35 0 -61.5 21.5t-26.5 66.5t21 80.5t56.5 60t82.5 37.5t98 13q55 0 101 -13.5t79 -39.5t51.5 -65.5t18.5 -90.5 q0 -49 -23 -97.5t-66 -99.5t-103 -105.5t-134 -115.5h117q36 0 59.5 8.5t38.5 22.5t24 31.5t17 34.5l17 32l90 -14q-5 -31 -10 -67.5t-9 -72.5t-7.5 -67t-6.5 -51h-487z" />
<glyph unicode="&#xb3;" horiz-adv-x="676" d="M92 915q0 32 16.5 57t47.5 42q22 -22 42 -37t40.5 -24.5t43 -14t48.5 -4.5q48 0 78 28t30 85q0 45 -26.5 71.5t-71.5 26.5q-22 0 -46 -6.5t-42 -14.5l-35 103l59 22q19 7 39 19t37 27.5t28 35t11 41.5t-14.5 38.5t-46.5 16.5q-23 0 -60 -12t-82 -49l-65 78q24 25 52.5 49 t62 42.5t72.5 30t85 11.5q49 0 84.5 -11.5t59 -32t34.5 -48.5t11 -62q0 -24 -9.5 -48.5t-24.5 -45.5t-34.5 -38t-40.5 -27q31 -5 58.5 -19t48 -36.5t32 -52.5t11.5 -66q0 -62 -29 -115.5t-77 -93t-109 -62t-125 -22.5q-100 0 -146.5 33.5t-46.5 84.5z" />
<glyph unicode="&#xb4;" horiz-adv-x="643" d="M102 1186l252 379q14 -14 39 -36t52.5 -45t53.5 -42t42 -27l-330 -323z" />
<glyph unicode="&#xb5;" horiz-adv-x="1163" d="M68 -334q0 83 9.5 199.5t21 248.5t21 270.5t9.5 266.5q0 116 -6 230q105 0 191 14.5t149 30.5q-11 -65 -21 -141t-17.5 -151.5t-12 -144.5t-4.5 -120q0 -70 34.5 -98.5t96.5 -28.5q42 0 80.5 15t66.5 32q1 21 2.5 56t3 79.5t2 95.5t0.5 103q0 62 -0.5 127t-5.5 131 q105 0 195 14.5t153 30.5q-12 -72 -22 -146.5t-16.5 -147t-10.5 -142.5t-4 -134q0 -94 39.5 -141t114.5 -53l-7 -162h-14q-57 0 -104.5 -2.5t-90.5 -7.5t-84 -12.5t-85 -18.5l39 209q-27 -35 -64 -69t-80.5 -62t-91.5 -45t-98 -17q-68 0 -115 24t-78 62q-2 -18 -2 -35v-32 q0 -95 13.5 -160.5t38 -109t58 -68.5t74.5 -39q-9 -27 -25.5 -57t-40.5 -55t-55 -41.5t-69 -16.5q-36 0 -70 10t-60 35t-42 67t-16 107z" />
<glyph unicode="&#xb6;" horiz-adv-x="1163" d="M29 1069q0 61 19 119t59 103t102 72.5t149 27.5q88 0 188.5 -5.5t215.5 -5.5q71 0 147 3.5t158 13.5l-8 -215q-23 -3 -42 -5t-36.5 -3.5t-34 -2.5t-35.5 -2l-57 -1683h-199l58 1683h-131l-60 -1683h-198l45 1288h-33q-84 0 -142.5 26t-95 68t-53 94.5t-16.5 106.5z" />
<glyph unicode="&#xb7;" horiz-adv-x="532" d="M96 717q0 46 15 79.5t39 55t55.5 31.5t64.5 10q32 0 63.5 -10t56 -31.5t39.5 -55t15 -79.5q0 -42 -13.5 -76t-36.5 -59t-55 -38.5t-69 -13.5t-68.5 13.5t-55 38.5t-37 59t-13.5 76z" />
<glyph unicode="&#xb8;" horiz-adv-x="604" d="M102 -356q0 26 11 51t43 51q24 -22 62.5 -41.5t78.5 -19.5q26 0 40.5 12.5t14.5 34.5q0 19 -12 33t-33.5 23.5t-50.5 14t-63 4.5q15 62 26.5 122.5t18.5 105.5h137l-21 -107q30 -7 57 -19.5t47 -32t32 -46.5t12 -63q0 -48 -20.5 -90t-57 -72.5t-85.5 -48t-106 -17.5 q-65 0 -98 30t-33 75z" />
<glyph unicode="&#xb9;" horiz-adv-x="586" d="M86 1407q77 45 137 92t99 78l116 -39q-3 -26 -5 -68.5t-3.5 -93t-3 -104.5t-2.5 -103.5t-1.5 -90.5t-0.5 -64q0 -29 5 -47.5t13.5 -29.5t21 -15.5t27.5 -6.5l23 -2l-4 -106q-35 2 -68 5q-29 2 -62 3.5t-59 1.5q-27 0 -77 -1t-115 -9l6 117q14 1 29 3q13 1 28 2t31 1 q3 38 5.5 95t5 117.5t3.5 116t1 91.5l-95 -52z" />
<glyph unicode="&#xba;" horiz-adv-x="881" d="M104 1178q0 77 27.5 149t78 127.5t121.5 89t158 33.5q86 0 149 -25.5t104 -69.5t61 -104.5t20 -130.5q0 -86 -31 -160.5t-83.5 -130t-121.5 -87t-145 -31.5q-93 0 -157.5 27.5t-104.5 74t-58 108t-18 130.5zM358 1206q0 -75 30 -117t77 -42q45 0 74.5 42t29.5 117 q0 76 -29.5 119t-74.5 43q-47 0 -77 -43t-30 -119z" />
<glyph unicode="&#xbb;" horiz-adv-x="995" d="M94 238l191 286l-168 289l67 66l346 -355l-368 -352zM326 145l303 379l-275 379l88 86l510 -465l-538 -465z" />
<glyph unicode="&#xbc;" horiz-adv-x="1499" d="M94 1222q77 45 137 92t99 78l116 -39q-3 -26 -5 -68.5t-3.5 -93t-3 -104.5t-2.5 -103.5t-1.5 -90.5t-0.5 -64q0 -29 5 -47.5t13.5 -29.5t21 -15.5t27.5 -6.5l23 -2l-4 -106q-35 2 -68 5q-29 2 -62 3.5t-59 1.5q-27 0 -77 -1t-115 -9l6 117q14 1 29 3q13 1 28 2t31 1 q3 38 5.5 95t5 117.5t3.5 116t1 91.5l-95 -52zM163 68l1002 1380l129 -109l-1002 -1380zM794 215l2 119l385 436l119 -39q-2 -26 -4.5 -69.5t-4.5 -96t-3.5 -110t-2.5 -111.5q29 2 52.5 3.5t40.5 3.5q20 2 37 3l-37 -139h-95v-8q0 -29 5 -46t14.5 -27.5t22.5 -15t28 -7.5 l21 -5l-5 -106q-35 2 -68 5q-29 2 -62 3.5t-60 1.5q-26 0 -75.5 -1t-112.5 -9l4 117q14 1 29 3q13 1 28 2t31 1q3 38 6 92h-295zM941 334q36 0 75 1t77 3q0 45 1 88.5t1 75.5z" />
<glyph unicode="&#xbd;" horiz-adv-x="1544" d="M94 1222q77 45 137 92t99 78l116 -39q-3 -26 -5 -68.5t-3.5 -93t-3 -104.5t-2.5 -103.5t-1.5 -90.5t-0.5 -64q0 -29 5 -47.5t13.5 -29.5t21 -15.5t27.5 -6.5l23 -2l-4 -106q-35 2 -68 5q-29 2 -62 3.5t-59 1.5q-27 0 -77 -1t-115 -9l6 117q14 1 29 3q13 1 28 2t31 1 q3 38 5.5 95t5 117.5t3.5 116t1 91.5l-95 -52zM163 68l1002 1380l129 -109l-1002 -1380zM918 103q54 56 111.5 114.5t105 115t78.5 108.5t31 96q0 42 -20 68.5t-62 26.5q-34 0 -57 -25t-23 -65q0 -8 1 -13.5t3 -13.5q-14 -11 -32.5 -17t-35.5 -6q-35 0 -61.5 21.5 t-26.5 66.5t21 80.5t56.5 60t82.5 37.5t98 13q55 0 101 -13.5t79 -39.5t51.5 -65.5t18.5 -90.5q0 -49 -23 -97.5t-66 -99.5t-103 -105.5t-134 -115.5h117q36 0 59.5 8.5t38.5 22.5t24 31.5t17 34.5l17 32l90 -14q-5 -31 -10 -67.5t-9 -72.5t-7.5 -67t-6.5 -51h-487z" />
<glyph unicode="&#xbe;" horiz-adv-x="1561" d="M92 729q0 32 16.5 57t47.5 42q22 -22 42 -37t40.5 -24.5t43 -14t48.5 -4.5q48 0 78 28t30 85q0 45 -26.5 71.5t-71.5 26.5q-22 0 -46 -6.5t-42 -14.5l-35 103l59 22q19 7 39 19t37 27.5t28 35t11 41.5t-14.5 38.5t-46.5 16.5q-23 0 -60 -12t-82 -49l-65 78q24 25 52.5 49 t62 42.5t72.5 30t85 11.5q49 0 84.5 -11.5t59 -32t34.5 -48.5t11 -62q0 -24 -9.5 -48.5t-24.5 -45.5t-34.5 -38t-40.5 -27q31 -5 58.5 -19t48 -36.5t32 -52.5t11.5 -66q0 -62 -29 -115.5t-77 -93t-109 -62t-125 -22.5q-100 0 -146.5 33.5t-46.5 84.5zM232 68l1002 1380 l129 -109l-1002 -1380zM857 216l2 119l385 436l119 -39q-2 -26 -4.5 -69.5t-4.5 -96t-3.5 -110t-2.5 -111.5q29 2 52.5 3.5t40.5 3.5q20 2 37 3l-37 -139h-95v-8q0 -29 5 -46t14.5 -27.5t22.5 -15t28 -7.5l21 -5l-5 -106q-35 2 -68 5q-29 2 -62 3.5t-60 1.5q-26 0 -75.5 -1 t-112.5 -9l4 117q14 1 29 3q13 1 28 2t31 1q3 38 6 92h-295zM1004 335q36 0 75 1t77 3q0 45 1 88.5t1 75.5z" />
<glyph unicode="&#xbf;" horiz-adv-x="793" d="M33 -252q0 84 29.5 145.5t74.5 107t96.5 78t96.5 57t74.5 45t29.5 42.5q0 19 -16.5 31t-57.5 12q-26 0 -47 -2t-39.5 -5.5t-36 -8.5t-36.5 -12v8q0 40 11 82t35 76t61.5 55.5t90.5 21.5q42 0 77.5 -13.5t61 -39t40 -63.5t14.5 -86q0 -59 -16.5 -110t-46.5 -98 t-72.5 -91.5t-94.5 -90.5q-16 -15 -32 -30.5t-28.5 -33.5t-20 -39t-7.5 -46q0 -28 19 -52t63 -24q19 0 36.5 7.5t31 23t21.5 39.5t8 57q0 16 -2 32.5t-7 35.5q26 8 50.5 11t46.5 3q71 0 115 -36.5t44 -108.5q0 -59 -28 -106.5t-74 -81t-105 -52t-120 -18.5q-81 0 -144 22.5 t-106.5 60.5t-66.5 88.5t-23 106.5zM238 739q0 42 13.5 76t36.5 59t55 38.5t69 13.5t68.5 -13.5t55 -38.5t37 -59t13.5 -76q0 -46 -15 -79.5t-39 -55t-55.5 -31.5t-64.5 -10q-32 0 -63.5 10t-56 31.5t-39.5 55t-15 79.5z" />
<glyph unicode="&#xc0;" d="M-31 -6l8 194l30 5q15 2 37.5 4t51.5 4l529 1190l256 41l381 -1006q24 -65 45.5 -104.5t42.5 -62.5t42.5 -34.5t45.5 -19.5l47 -17l-8 -194q-66 6 -150 11t-178 5q-100 0 -191.5 -5t-166.5 -11l8 194q52 7 90 10t76 3l-64 207q-90 -2 -205.5 -6.5t-240.5 -12.5 q-14 -35 -20.5 -62t-6.5 -48q0 -41 22 -59.5t62 -24.5l39 -7l-8 -194q-31 4 -74 8q-37 3 -90.5 5.5t-124.5 2.5q-35 0 -63.5 -0.5t-59.5 -2t-69.5 -4.5t-92.5 -9zM432 1733q12 15 31.5 42t39.5 56.5t38.5 56t28.5 41.5l350 -301l-86 -125zM539 635h292l-118 385h-41z" />
<glyph unicode="&#xc1;" d="M-31 -6l8 194l30 5q15 2 37.5 4t51.5 4l529 1190l256 41l381 -1006q24 -65 45.5 -104.5t42.5 -62.5t42.5 -34.5t45.5 -19.5l47 -17l-8 -194q-66 6 -150 11t-178 5q-100 0 -191.5 -5t-166.5 -11l8 194q52 7 90 10t76 3l-64 207q-90 -2 -205.5 -6.5t-240.5 -12.5 q-14 -35 -20.5 -62t-6.5 -48q0 -41 22 -59.5t62 -24.5l39 -7l-8 -194q-31 4 -74 8q-37 3 -90.5 5.5t-124.5 2.5q-35 0 -63.5 -0.5t-59.5 -2t-69.5 -4.5t-92.5 -9zM539 635h292l-118 385h-41zM698 1618l326 317q11 -16 30.5 -43t41.5 -54.5t43 -51.5t35 -35l-390 -248z" />
<glyph unicode="&#xc2;" d="M-31 -6l8 194l30 5q15 2 37.5 4t51.5 4l529 1190l256 41l381 -1006q24 -65 45.5 -104.5t42.5 -62.5t42.5 -34.5t45.5 -19.5l47 -17l-8 -194q-66 6 -150 11t-178 5q-100 0 -191.5 -5t-166.5 -11l8 194q52 7 90 10t76 3l-64 207q-90 -2 -205.5 -6.5t-240.5 -12.5 q-14 -35 -20.5 -62t-6.5 -48q0 -41 22 -59.5t62 -24.5l39 -7l-8 -194q-31 4 -74 8q-37 3 -90.5 5.5t-124.5 2.5q-35 0 -63.5 -0.5t-59.5 -2t-69.5 -4.5t-92.5 -9zM452 1606l349 356l288 -356l-104 -103l-207 166l-225 -166zM539 635h292l-118 385h-41z" />
<glyph unicode="&#xc3;" d="M-31 -6l8 194l30 5q15 2 37.5 4t51.5 4l529 1190l256 41l381 -1006q24 -65 45.5 -104.5t42.5 -62.5t42.5 -34.5t45.5 -19.5l47 -17l-8 -194q-66 6 -150 11t-178 5q-100 0 -191.5 -5t-166.5 -11l8 194q52 7 90 10t76 3l-64 207q-90 -2 -205.5 -6.5t-240.5 -12.5 q-14 -35 -20.5 -62t-6.5 -48q0 -41 22 -59.5t62 -24.5l39 -7l-8 -194q-31 4 -74 8q-37 3 -90.5 5.5t-124.5 2.5q-35 0 -63.5 -0.5t-59.5 -2t-69.5 -4.5t-92.5 -9zM399 1624q19 38 46.5 82.5t61 82.5t73 63.5t84.5 25.5q40 0 81.5 -17.5t80 -38t71 -38t55.5 -17.5t45.5 16.5 t40.5 36.5q21 24 41 54l99 -78q-20 -38 -46.5 -82t-60 -81.5t-72.5 -62t-84 -24.5q-41 0 -82 17.5t-79.5 38t-71 38t-55.5 17.5t-45 -17.5t-40 -38.5q-21 -25 -40 -55zM539 635h292l-118 385h-41z" />
<glyph unicode="&#xc4;" d="M-31 -6l8 194l30 5q15 2 37.5 4t51.5 4l529 1190l256 41l381 -1006q24 -65 45.5 -104.5t42.5 -62.5t42.5 -34.5t45.5 -19.5l47 -17l-8 -194q-66 6 -150 11t-178 5q-100 0 -191.5 -5t-166.5 -11l8 194q52 7 90 10t76 3l-64 207q-90 -2 -205.5 -6.5t-240.5 -12.5 q-14 -35 -20.5 -62t-6.5 -48q0 -41 22 -59.5t62 -24.5l39 -7l-8 -194q-31 4 -74 8q-37 3 -90.5 5.5t-124.5 2.5q-35 0 -63.5 -0.5t-59.5 -2t-69.5 -4.5t-92.5 -9zM448 1702q0 33 10 62.5t29 52t46 36t61 13.5q28 0 53 -10t44 -29.5t29.5 -47.5t10.5 -65q0 -34 -9.5 -64.5 t-27.5 -53.5t-45 -36.5t-61 -13.5q-29 0 -54.5 10t-44.5 29.5t-30 48.5t-11 68zM539 635h292l-118 385h-41zM831 1702q0 33 10 62.5t29.5 52t46.5 36t62 13.5q28 0 52.5 -10t43 -29.5t29 -47.5t10.5 -65q0 -34 -9.5 -64.5t-28.5 -53.5t-46 -36.5t-61 -13.5q-28 0 -53 10 t-44 29.5t-30 48.5t-11 68z" />
<glyph unicode="&#xc5;" d="M-31 -6l8 194l30 5q15 2 37.5 4t51.5 4l529 1190l256 41l381 -1006q24 -65 45.5 -104.5t42.5 -62.5t42.5 -34.5t45.5 -19.5l47 -17l-8 -194q-66 6 -150 11t-178 5q-100 0 -191.5 -5t-166.5 -11l8 194q52 7 90 10t76 3l-64 207q-90 -2 -205.5 -6.5t-240.5 -12.5 q-14 -35 -20.5 -62t-6.5 -48q0 -41 22 -59.5t62 -24.5l39 -7l-8 -194q-31 4 -74 8q-37 3 -90.5 5.5t-124.5 2.5q-35 0 -63.5 -0.5t-59.5 -2t-69.5 -4.5t-92.5 -9zM520 1716q0 50 20 96t56.5 81t88.5 56t116 21q60 0 103.5 -17t72 -46t42 -66.5t13.5 -79.5q0 -56 -22 -104 t-60 -83.5t-88.5 -56t-107.5 -20.5q-65 0 -109.5 19t-72 50t-40 70t-12.5 80zM539 635h292l-118 385h-41zM676 1733q0 -20 6 -39.5t18.5 -35.5t31.5 -26t46 -10q47 0 72.5 28.5t25.5 82.5q0 18 -5.5 38t-17.5 36.5t-31 27t-46 10.5q-49 0 -74.5 -33t-25.5 -79z" />
<glyph unicode="&#xc6;" horiz-adv-x="2054" d="M-55 -6l8 192q17 3 30.5 5l27 4t27 3.5t30.5 2.5l505 813q11 17 16 33.5t5 31.5q0 23 -10.5 42.5t-32.5 31.5l-115 68l8 176q42 -4 98.5 -7t121.5 -5.5t135.5 -4.5t139.5 -3.5t133.5 -2t117.5 -0.5h137q150 0 310.5 6t334.5 17l-30 -471h-232l-6 55q-5 38 -15 68 t-29.5 51.5t-49.5 34.5t-74 18l-246 25l-12 -373l395 16l-10 -248l-393 27l-13 -383l240 14q58 3 96.5 18.5t64 45t42 75t29.5 109.5h239l-59 -499q-164 14 -343.5 21t-369.5 7q-59 0 -115 -1t-111 -2.5t-111.5 -4t-117.5 -6.5l9 194l60 6q26 2 54 4.5t51 2.5q4 42 6.5 96.5 t4.5 110.5q-79 -4 -188.5 -8t-237.5 -15q-11 -35 -16 -62t-5 -47q0 -40 18 -57.5t50 -23.5l33 -7l-9 -194q-34 3 -74.5 5.5t-84.5 4.5t-88.5 3t-85.5 1q-85 0 -157.5 -4t-135.5 -10zM633 635h303q2 73 4.5 147.5t4 143t3 127.5t2.5 102h-41z" />
<glyph unicode="&#xc7;" horiz-adv-x="1405" d="M78 670q0 180 59 322t165.5 239.5t256 149t330.5 51.5q78 0 141 -5t116 -13t99 -18.5t90 -21.5l-16 -448h-252v14q0 45 -9 93t-35.5 87.5t-75 64.5t-128.5 25q-72 0 -140 -31.5t-121.5 -93.5t-85.5 -154.5t-32 -215.5q0 -141 44 -238t117 -157.5t167 -87.5t193 -27 q46 0 91.5 3.5t86.5 9.5t76.5 13.5t62.5 16.5l55 -203q-47 -17 -104 -32.5t-120 -27.5t-131 -19t-136 -7h-28t-28 2l-6 -33q30 -7 57 -19.5t47 -32t32 -46.5t12 -63q0 -48 -20.5 -90t-57 -72.5t-85.5 -48t-106 -17.5q-65 0 -98 30t-33 75q0 26 11 51t43 51 q24 -22 62.5 -41.5t78.5 -19.5q26 0 40.5 12.5t14.5 34.5q0 19 -12 33t-33.5 23.5t-51 14t-63.5 4.5q11 44 20 87t15 81q-133 22 -239.5 77.5t-181 143t-114.5 206.5t-40 268z" />
<glyph unicode="&#xc8;" horiz-adv-x="1384" d="M72 -6l8 194l60 6q26 2 54.5 4.5t51.5 2.5q4 48 7.5 114.5t6.5 142t6 155t4.5 153.5t2.5 138t1 108q0 55 -9 89t-25.5 53.5t-40.5 28t-54 13.5l-39 6l9 195q62 -6 124.5 -10t128.5 -7t137.5 -4.5t151.5 -1.5q150 0 310.5 6t335.5 17l-31 -471h-232l-6 55q-5 38 -15 68 t-29.5 51.5t-49.5 34.5t-74 18l-245 25l-13 -373l396 16l-11 -248l-393 27l-12 -383l239 14q59 4 98 20.5t64.5 46.5t41.5 74.5t28 106.5h239l-59 -499q-164 14 -343.5 21t-369.5 7q-59 0 -114.5 -1t-111 -2.5t-112 -4t-116.5 -6.5zM428 1733q12 15 31.5 42t39.5 56.5 t38.5 56t28.5 41.5l350 -301l-86 -125z" />
<glyph unicode="&#xc9;" horiz-adv-x="1384" d="M72 -6l8 194l60 6q26 2 54.5 4.5t51.5 2.5q4 48 7.5 114.5t6.5 142t6 155t4.5 153.5t2.5 138t1 108q0 55 -9 89t-25.5 53.5t-40.5 28t-54 13.5l-39 6l9 195q62 -6 124.5 -10t128.5 -7t137.5 -4.5t151.5 -1.5q150 0 310.5 6t335.5 17l-31 -471h-232l-6 55q-5 38 -15 68 t-29.5 51.5t-49.5 34.5t-74 18l-245 25l-13 -373l396 16l-11 -248l-393 27l-12 -383l239 14q59 4 98 20.5t64.5 46.5t41.5 74.5t28 106.5h239l-59 -499q-164 14 -343.5 21t-369.5 7q-59 0 -114.5 -1t-111 -2.5t-112 -4t-116.5 -6.5zM565 1618l326 317q11 -16 30.5 -43 t41.5 -54.5t43 -51.5t35 -35l-390 -248z" />
<glyph unicode="&#xca;" horiz-adv-x="1384" d="M72 -6l8 194l60 6q26 2 54.5 4.5t51.5 2.5q4 48 7.5 114.5t6.5 142t6 155t4.5 153.5t2.5 138t1 108q0 55 -9 89t-25.5 53.5t-40.5 28t-54 13.5l-39 6l9 195q62 -6 124.5 -10t128.5 -7t137.5 -4.5t151.5 -1.5q150 0 310.5 6t335.5 17l-31 -471h-232l-6 55q-5 38 -15 68 t-29.5 51.5t-49.5 34.5t-74 18l-245 25l-13 -373l396 16l-11 -248l-393 27l-12 -383l239 14q59 4 98 20.5t64.5 46.5t41.5 74.5t28 106.5h239l-59 -499q-164 14 -343.5 21t-369.5 7q-59 0 -114.5 -1t-111 -2.5t-112 -4t-116.5 -6.5zM436 1606l349 356l288 -356l-104 -103 l-207 166l-225 -166z" />
<glyph unicode="&#xcb;" horiz-adv-x="1384" d="M72 -6l8 194l60 6q26 2 54.5 4.5t51.5 2.5q4 48 7.5 114.5t6.5 142t6 155t4.5 153.5t2.5 138t1 108q0 55 -9 89t-25.5 53.5t-40.5 28t-54 13.5l-39 6l9 195q62 -6 124.5 -10t128.5 -7t137.5 -4.5t151.5 -1.5q150 0 310.5 6t335.5 17l-31 -471h-232l-6 55q-5 38 -15 68 t-29.5 51.5t-49.5 34.5t-74 18l-245 25l-13 -373l396 16l-11 -248l-393 27l-12 -383l239 14q59 4 98 20.5t64.5 46.5t41.5 74.5t28 106.5h239l-59 -499q-164 14 -343.5 21t-369.5 7q-59 0 -114.5 -1t-111 -2.5t-112 -4t-116.5 -6.5zM426 1702q0 33 10 62.5t29 52t46 36 t61 13.5q28 0 53 -10t44 -29.5t29.5 -47.5t10.5 -65q0 -34 -9.5 -64.5t-27.5 -53.5t-45 -36.5t-61 -13.5q-29 0 -54.5 10t-44.5 29.5t-30 48.5t-11 68zM809 1702q0 33 10 62.5t29.5 52t46.5 36t62 13.5q28 0 52.5 -10t43 -29.5t29 -47.5t10.5 -65q0 -34 -9.5 -64.5 t-28.5 -53.5t-46 -36.5t-61 -13.5q-28 0 -53 10t-44 29.5t-30 48.5t-11 68z" />
<glyph unicode="&#xcc;" horiz-adv-x="858" d="M72 -6l8 194q26 3 54 6q24 2 53.5 4.5t58.5 2.5q4 58 7 128.5t6.5 146t6 152.5t4.5 147.5t3 131.5t1 105q0 55 -9 89t-25.5 53.5t-40.5 28t-54 13.5l-39 6l9 195q44 -5 97 -9q45 -3 106 -5.5t133 -2.5q69 0 153.5 2t192.5 15l-9 -195q-26 -3 -54 -6q-24 -2 -53 -4t-58 -2 q-4 -59 -7.5 -129.5t-6.5 -146t-6 -152t-5 -147t-3 -131.5t-1 -105q0 -56 9 -90t25.5 -53.5t40.5 -28t54 -12.5l39 -7l-8 -194q-45 4 -98 8q-46 3 -106.5 5.5t-131.5 2.5q-69 0 -153.5 -2t-192.5 -14zM137 1733q12 15 31.5 42t39.5 56.5t38.5 56t28.5 41.5l350 -301 l-86 -125z" />
<glyph unicode="&#xcd;" horiz-adv-x="858" d="M72 -6l8 194q26 3 54 6q24 2 53.5 4.5t58.5 2.5q4 58 7 128.5t6.5 146t6 152.5t4.5 147.5t3 131.5t1 105q0 55 -9 89t-25.5 53.5t-40.5 28t-54 13.5l-39 6l9 195q44 -5 97 -9q45 -3 106 -5.5t133 -2.5q69 0 153.5 2t192.5 15l-9 -195q-26 -3 -54 -6q-24 -2 -53 -4t-58 -2 q-4 -59 -7.5 -129.5t-6.5 -146t-6 -152t-5 -147t-3 -131.5t-1 -105q0 -56 9 -90t25.5 -53.5t40.5 -28t54 -12.5l39 -7l-8 -194q-45 4 -98 8q-46 3 -106.5 5.5t-131.5 2.5q-69 0 -153.5 -2t-192.5 -14zM305 1618l326 317q11 -16 30.5 -43t41.5 -54.5t43 -51.5t35 -35 l-390 -248z" />
<glyph unicode="&#xce;" horiz-adv-x="858" d="M72 -6l8 194q26 3 54 6q24 2 53.5 4.5t58.5 2.5q4 58 7 128.5t6.5 146t6 152.5t4.5 147.5t3 131.5t1 105q0 55 -9 89t-25.5 53.5t-40.5 28t-54 13.5l-39 6l9 195q44 -5 97 -9q45 -3 106 -5.5t133 -2.5q69 0 153.5 2t192.5 15l-9 -195q-26 -3 -54 -6q-24 -2 -53 -4t-58 -2 q-4 -59 -7.5 -129.5t-6.5 -146t-6 -152t-5 -147t-3 -131.5t-1 -105q0 -56 9 -90t25.5 -53.5t40.5 -28t54 -12.5l39 -7l-8 -194q-45 4 -98 8q-46 3 -106.5 5.5t-131.5 2.5q-69 0 -153.5 -2t-192.5 -14zM137 1606l349 356l288 -356l-104 -103l-207 166l-225 -166z" />
<glyph unicode="&#xcf;" horiz-adv-x="858" d="M72 -6l8 194q26 3 54 6q24 2 53.5 4.5t58.5 2.5q4 58 7 128.5t6.5 146t6 152.5t4.5 147.5t3 131.5t1 105q0 55 -9 89t-25.5 53.5t-40.5 28t-54 13.5l-39 6l9 195q44 -5 97 -9q45 -3 106 -5.5t133 -2.5q69 0 153.5 2t192.5 15l-9 -195q-26 -3 -54 -6q-24 -2 -53 -4t-58 -2 q-4 -59 -7.5 -129.5t-6.5 -146t-6 -152t-5 -147t-3 -131.5t-1 -105q0 -56 9 -90t25.5 -53.5t40.5 -28t54 -12.5l39 -7l-8 -194q-45 4 -98 8q-46 3 -106.5 5.5t-131.5 2.5q-69 0 -153.5 -2t-192.5 -14zM135 1702q0 33 10 62.5t29 52t46 36t61 13.5q28 0 53 -10t44 -29.5 t29.5 -47.5t10.5 -65q0 -34 -9.5 -64.5t-27.5 -53.5t-45 -36.5t-61 -13.5q-29 0 -54.5 10t-44.5 29.5t-30 48.5t-11 68zM518 1702q0 33 10 62.5t29.5 52t46.5 36t62 13.5q28 0 52.5 -10t43 -29.5t29 -47.5t10.5 -65q0 -34 -9.5 -64.5t-28.5 -53.5t-46 -36.5t-61 -13.5 q-28 0 -53 10t-44 29.5t-30 48.5t-11 68z" />
<glyph unicode="&#xd0;" horiz-adv-x="1620" d="M70 571l10 258h192q2 54 2 101v82q0 55 -9 89t-25.5 53.5t-40.5 28t-54 13.5l-39 6l9 195q46 -6 91 -10q38 -4 82 -6.5t79 -2.5q59 0 115.5 3.5t115 8t120 8t130.5 3.5q164 0 294.5 -47.5t221 -136t138.5 -215t48 -283.5q0 -72 -14 -154t-48 -163t-92 -156t-145 -132.5 t-207.5 -91.5t-279.5 -34q-50 0 -100 3.5t-102 7.5t-105.5 7.5t-110.5 3.5q-16 0 -45.5 -1t-67 -2.5t-79.5 -5t-82 -7.5l8 194q17 3 34 5t36.5 3.5t43 2.5t52.5 2q5 80 9 179.5t9 205.5q-49 -3 -97.5 -6.5t-96.5 -8.5zM590 338q0 -34 9 -57t32 -37.5t64 -20.5t106 -6 q33 0 74.5 9t84 31.5t83 59.5t72 94t50.5 135.5t19 182.5q0 43 -7 94t-24.5 101.5t-48 97.5t-76.5 83t-109.5 57.5t-148.5 21.5q-43 0 -85.5 -1.5t-68.5 -4.5l-12 -349h234l-7 -225q-28 -1 -64 -1q-31 -1 -74 -1t-95 -2q-3 -92 -4.5 -144.5t-2.5 -78t-1 -32v-7.5z" />
<glyph unicode="&#xd1;" horiz-adv-x="1649" d="M53 -6l8 194q20 3 45 6q20 2 47 4.5t56 2.5l22 643q7 155 10 272t3 207v68l198 41l725 -889l37 6l-16 438q-2 63 -13 101.5t-29.5 60.5t-45 32t-60.5 15l-47 6l8 195q47 -5 95 -9q42 -3 92 -5.5t98 -2.5q34 0 67.5 0.5t71 2.5t80.5 5t97 9l-9 -193q-20 -3 -43 -6 q-20 -2 -45.5 -4t-54.5 -2l-25 -635q-3 -93 -5 -168.5t-3 -140.5t-1.5 -125t-0.5 -121l-207 -43l-723 889l-36 -6l18 -436q2 -63 12.5 -102t29.5 -61.5t45 -32.5t60 -15l48 -7l-9 -194q-46 4 -94 8q-42 3 -92 5.5t-98 2.5q-35 0 -68.5 -0.5t-70.5 -2t-80 -5t-97 -8.5z M526 1624q19 38 46.5 82.5t61 82.5t73 63.5t84.5 25.5q40 0 81.5 -17.5t80 -38t71 -38t55.5 -17.5t45.5 16.5t40.5 36.5q21 24 41 54l99 -78q-20 -38 -46.5 -82t-60 -81.5t-72.5 -62t-84 -24.5q-41 0 -82 17.5t-79.5 38t-71 38t-55.5 17.5t-45 -17.5t-40 -38.5 q-21 -25 -40 -55z" />
<glyph unicode="&#xd2;" horiz-adv-x="1595" d="M76 688q0 155 54 291t154.5 236.5t243.5 158.5t320 58q166 0 293 -58t213.5 -155.5t131 -225.5t44.5 -268q0 -105 -25.5 -202.5t-72 -182.5t-112.5 -155.5t-147 -120.5t-175 -77.5t-197 -27.5q-186 0 -322.5 58t-226 157.5t-133 232t-43.5 281.5zM440 735 q0 -112 26 -212.5t74.5 -176t117 -120t153.5 -44.5q89 0 155 42.5t109.5 111t64.5 153.5t21 170q0 111 -25.5 211t-73.5 175.5t-116.5 120t-154.5 44.5q-89 0 -155 -43t-109.5 -111.5t-65 -153t-21.5 -167.5zM557 1733q12 15 31.5 42t39.5 56.5t38.5 56t28.5 41.5l350 -301 l-86 -125z" />
<glyph unicode="&#xd3;" horiz-adv-x="1595" d="M76 688q0 155 54 291t154.5 236.5t243.5 158.5t320 58q166 0 293 -58t213.5 -155.5t131 -225.5t44.5 -268q0 -105 -25.5 -202.5t-72 -182.5t-112.5 -155.5t-147 -120.5t-175 -77.5t-197 -27.5q-186 0 -322.5 58t-226 157.5t-133 232t-43.5 281.5zM440 735 q0 -112 26 -212.5t74.5 -176t117 -120t153.5 -44.5q89 0 155 42.5t109.5 111t64.5 153.5t21 170q0 111 -25.5 211t-73.5 175.5t-116.5 120t-154.5 44.5q-89 0 -155 -43t-109.5 -111.5t-65 -153t-21.5 -167.5zM667 1618l326 317q11 -16 30.5 -43t41.5 -54.5t43 -51.5t35 -35 l-390 -248z" />
<glyph unicode="&#xd4;" horiz-adv-x="1595" d="M76 688q0 155 54 291t154.5 236.5t243.5 158.5t320 58q166 0 293 -58t213.5 -155.5t131 -225.5t44.5 -268q0 -105 -25.5 -202.5t-72 -182.5t-112.5 -155.5t-147 -120.5t-175 -77.5t-197 -27.5q-186 0 -322.5 58t-226 157.5t-133 232t-43.5 281.5zM440 735 q0 -112 26 -212.5t74.5 -176t117 -120t153.5 -44.5q89 0 155 42.5t109.5 111t64.5 153.5t21 170q0 111 -25.5 211t-73.5 175.5t-116.5 120t-154.5 44.5q-89 0 -155 -43t-109.5 -111.5t-65 -153t-21.5 -167.5zM522 1606l349 356l288 -356l-104 -103l-207 166l-225 -166z" />
<glyph unicode="&#xd5;" horiz-adv-x="1595" d="M76 688q0 155 54 291t154.5 236.5t243.5 158.5t320 58q166 0 293 -58t213.5 -155.5t131 -225.5t44.5 -268q0 -105 -25.5 -202.5t-72 -182.5t-112.5 -155.5t-147 -120.5t-175 -77.5t-197 -27.5q-186 0 -322.5 58t-226 157.5t-133 232t-43.5 281.5zM440 735 q0 -112 26 -212.5t74.5 -176t117 -120t153.5 -44.5q89 0 155 42.5t109.5 111t64.5 153.5t21 170q0 111 -25.5 211t-73.5 175.5t-116.5 120t-154.5 44.5q-89 0 -155 -43t-109.5 -111.5t-65 -153t-21.5 -167.5zM471 1624q19 38 46.5 82.5t61 82.5t73 63.5t84.5 25.5 q40 0 81.5 -17.5t80 -38t71 -38t55.5 -17.5t45.5 16.5t40.5 36.5q21 24 41 54l99 -78q-20 -38 -46.5 -82t-60 -81.5t-72.5 -62t-84 -24.5q-41 0 -82 17.5t-79.5 38t-71 38t-55.5 17.5t-45 -17.5t-40 -38.5q-21 -25 -40 -55z" />
<glyph unicode="&#xd6;" horiz-adv-x="1595" d="M76 688q0 155 54 291t154.5 236.5t243.5 158.5t320 58q166 0 293 -58t213.5 -155.5t131 -225.5t44.5 -268q0 -105 -25.5 -202.5t-72 -182.5t-112.5 -155.5t-147 -120.5t-175 -77.5t-197 -27.5q-186 0 -322.5 58t-226 157.5t-133 232t-43.5 281.5zM440 735 q0 -112 26 -212.5t74.5 -176t117 -120t153.5 -44.5q89 0 155 42.5t109.5 111t64.5 153.5t21 170q0 111 -25.5 211t-73.5 175.5t-116.5 120t-154.5 44.5q-89 0 -155 -43t-109.5 -111.5t-65 -153t-21.5 -167.5zM505 1702q0 33 10 62.5t29 52t46 36t61 13.5q28 0 53 -10 t44 -29.5t29.5 -47.5t10.5 -65q0 -34 -9.5 -64.5t-27.5 -53.5t-45 -36.5t-61 -13.5q-29 0 -54.5 10t-44.5 29.5t-30 48.5t-11 68zM888 1702q0 33 10 62.5t29.5 52t46.5 36t62 13.5q28 0 52.5 -10t43 -29.5t29 -47.5t10.5 -65q0 -34 -9.5 -64.5t-28.5 -53.5t-46 -36.5 t-61 -13.5q-28 0 -53 10t-44 29.5t-30 48.5t-11 68z" />
<glyph unicode="&#xd7;" horiz-adv-x="1075" d="M98 338l310 309l-310 309l133 134l310 -310l307 310l133 -134l-309 -309l309 -309l-133 -133l-307 309l-310 -309z" />
<glyph unicode="&#xd8;" horiz-adv-x="1595" d="M76 688q0 155 54 291t154.5 236.5t243.5 158.5t320 58q90 0 166.5 -18t144.5 -50l121 182l127 -88l-119 -178q59 -49 104.5 -111t76 -133.5t46 -150t15.5 -160.5q0 -105 -25.5 -202.5t-72 -182.5t-112.5 -155.5t-147 -120.5t-175 -77.5t-197 -27.5q-102 0 -189 18 t-159 50l-144 -215l-123 84l140 210q-64 50 -111 114.5t-78 139t-46 157.5t-15 171zM440 735q0 -97 18.5 -185t55.5 -159l485 731q-43 42 -95 65t-113 23q-89 0 -155 -43t-109.5 -111.5t-65 -153t-21.5 -167.5zM610 262q42 -38 92 -59t109 -21q89 0 155 42.5t109.5 111 t64.5 153.5t21 170q0 91 -17.5 175t-49.5 153z" />
<glyph unicode="&#xd9;" horiz-adv-x="1593" d="M57 1202l9 195q42 -5 93 -9q44 -3 103.5 -5.5t130.5 -2.5q69 0 153.5 2t192.5 15l-8 -195l-54 -6q-24 -2 -52.5 -4t-57.5 -2q-11 -299 -15.5 -463.5t-4.5 -212.5q0 -88 22.5 -151t62 -103t92.5 -59t114 -19q70 0 124 22.5t90 64t54.5 100.5t19.5 131q2 128 3 216.5t2 146 t1.5 89.5t0.5 46.5v17.5v4q0 52 -9.5 84.5t-26.5 51t-40.5 27t-52.5 13.5l-41 6l8 195q33 -5 78 -9q38 -3 92.5 -5.5t126.5 -2.5q34 0 70.5 0.5t77 2t86.5 5t100 9.5l-9 -195q-26 -3 -54 -6q-24 -2 -53.5 -4t-58.5 -2l-55 -680q-22 -266 -170 -407.5t-428 -141.5 q-131 0 -235.5 34t-177.5 97.5t-112.5 154t-39.5 202.5q0 23 1 69t3 102.5t4 118t4 116.5t3 97t1 60q0 55 -9 89t-25.5 53.5t-40.5 28t-54 13.5zM532 1733q12 15 31.5 42t39.5 56.5t38.5 56t28.5 41.5l350 -301l-86 -125z" />
<glyph unicode="&#xda;" horiz-adv-x="1593" d="M57 1202l9 195q42 -5 93 -9q44 -3 103.5 -5.5t130.5 -2.5q69 0 153.5 2t192.5 15l-8 -195l-54 -6q-24 -2 -52.5 -4t-57.5 -2q-11 -299 -15.5 -463.5t-4.5 -212.5q0 -88 22.5 -151t62 -103t92.5 -59t114 -19q70 0 124 22.5t90 64t54.5 100.5t19.5 131q2 128 3 216.5t2 146 t1.5 89.5t0.5 46.5v17.5v4q0 52 -9.5 84.5t-26.5 51t-40.5 27t-52.5 13.5l-41 6l8 195q33 -5 78 -9q38 -3 92.5 -5.5t126.5 -2.5q34 0 70.5 0.5t77 2t86.5 5t100 9.5l-9 -195q-26 -3 -54 -6q-24 -2 -53.5 -4t-58.5 -2l-55 -680q-22 -266 -170 -407.5t-428 -141.5 q-131 0 -235.5 34t-177.5 97.5t-112.5 154t-39.5 202.5q0 23 1 69t3 102.5t4 118t4 116.5t3 97t1 60q0 55 -9 89t-25.5 53.5t-40.5 28t-54 13.5zM739 1618l326 317q11 -16 30.5 -43t41.5 -54.5t43 -51.5t35 -35l-390 -248z" />
<glyph unicode="&#xdb;" horiz-adv-x="1593" d="M57 1202l9 195q42 -5 93 -9q44 -3 103.5 -5.5t130.5 -2.5q69 0 153.5 2t192.5 15l-8 -195l-54 -6q-24 -2 -52.5 -4t-57.5 -2q-11 -299 -15.5 -463.5t-4.5 -212.5q0 -88 22.5 -151t62 -103t92.5 -59t114 -19q70 0 124 22.5t90 64t54.5 100.5t19.5 131q2 128 3 216.5t2 146 t1.5 89.5t0.5 46.5v17.5v4q0 52 -9.5 84.5t-26.5 51t-40.5 27t-52.5 13.5l-41 6l8 195q33 -5 78 -9q38 -3 92.5 -5.5t126.5 -2.5q34 0 70.5 0.5t77 2t86.5 5t100 9.5l-9 -195q-26 -3 -54 -6q-24 -2 -53.5 -4t-58.5 -2l-55 -680q-22 -266 -170 -407.5t-428 -141.5 q-131 0 -235.5 34t-177.5 97.5t-112.5 154t-39.5 202.5q0 23 1 69t3 102.5t4 118t4 116.5t3 97t1 60q0 55 -9 89t-25.5 53.5t-40.5 28t-54 13.5zM544 1606l349 356l288 -356l-104 -103l-207 166l-225 -166z" />
<glyph unicode="&#xdc;" horiz-adv-x="1593" d="M57 1202l9 195q42 -5 93 -9q44 -3 103.5 -5.5t130.5 -2.5q69 0 153.5 2t192.5 15l-8 -195l-54 -6q-24 -2 -52.5 -4t-57.5 -2q-11 -299 -15.5 -463.5t-4.5 -212.5q0 -88 22.5 -151t62 -103t92.5 -59t114 -19q70 0 124 22.5t90 64t54.5 100.5t19.5 131q2 128 3 216.5t2 146 t1.5 89.5t0.5 46.5v17.5v4q0 52 -9.5 84.5t-26.5 51t-40.5 27t-52.5 13.5l-41 6l8 195q33 -5 78 -9q38 -3 92.5 -5.5t126.5 -2.5q34 0 70.5 0.5t77 2t86.5 5t100 9.5l-9 -195q-26 -3 -54 -6q-24 -2 -53.5 -4t-58.5 -2l-55 -680q-22 -266 -170 -407.5t-428 -141.5 q-131 0 -235.5 34t-177.5 97.5t-112.5 154t-39.5 202.5q0 23 1 69t3 102.5t4 118t4 116.5t3 97t1 60q0 55 -9 89t-25.5 53.5t-40.5 28t-54 13.5zM548 1702q0 33 10 62.5t29 52t46 36t61 13.5q28 0 53 -10t44 -29.5t29.5 -47.5t10.5 -65q0 -34 -9.5 -64.5t-27.5 -53.5 t-45 -36.5t-61 -13.5q-29 0 -54.5 10t-44.5 29.5t-30 48.5t-11 68zM931 1702q0 33 10 62.5t29.5 52t46.5 36t62 13.5q28 0 52.5 -10t43 -29.5t29 -47.5t10.5 -65q0 -34 -9.5 -64.5t-28.5 -53.5t-46 -36.5t-61 -13.5q-28 0 -53 10t-44 29.5t-30 48.5t-11 68z" />
<glyph unicode="&#xdd;" horiz-adv-x="1444" d="M14 1202l9 195q66 -6 155 -11.5t182 -5.5q101 0 186 5.5t161 11.5l-11 -195q-52 -6 -90 -8l-76 -4l242 -424h39l131 225q29 48 42 80.5t13 56.5q0 31 -19.5 45.5t-53.5 20.5l-47 8l8 195q66 -8 136 -12.5t155 -4.5q83 0 162.5 4.5t144.5 12.5l-8 -193q-16 -3 -28.5 -5 t-24.5 -3.5t-24.5 -2t-29.5 -1.5l-475 -682q-1 -30 -1.5 -48t-0.5 -31v-24.5v-27.5q0 -56 9 -90t25.5 -53.5t40.5 -28t54 -12.5l39 -7l-8 -194q-44 4 -97 8q-45 3 -105.5 5.5t-131.5 2.5q-69 0 -154.5 -2t-193.5 -14l8 194q26 3 54 6q24 2 53.5 4.5t58.5 2.5q1 21 3 52.5 t4 67.5t3.5 75t3.5 77l-367 602q-21 34 -40 57t-37 37t-35 20.5t-35 8.5zM671 1618l326 317q11 -16 30.5 -43t41.5 -54.5t43 -51.5t35 -35l-390 -248z" />
<glyph unicode="&#xde;" horiz-adv-x="1282" d="M72 -6l8 194q26 3 53 6q23 2 52.5 4.5t58.5 2.5q4 58 7 128.5t6.5 146t6 152.5t4.5 147.5t3 131.5t1 105q0 55 -8.5 89t-25 53.5t-40 28t-53.5 13.5l-39 6l9 195q43 -5 96 -9q45 -3 105.5 -5.5t132.5 -2.5q69 0 154 2t194 15l-9 -195q-27 -3 -55 -6q-24 -2 -53.5 -4 t-58.5 -2l-3 -92q39 3 79.5 4.5t78.5 1.5q240 0 353.5 -95.5t113.5 -269.5q0 -111 -41.5 -192t-108 -133.5t-149.5 -77.5t-166 -25q-26 0 -55 3t-53 10l10 233q15 -3 26.5 -3.5t22.5 -0.5q74 0 112 39.5t38 124.5q0 74 -52 108.5t-155 34.5q-19 0 -36 -1t-28 -3 q-6 -103 -9 -223.5t-5 -253.5q0 -56 9 -90t25.5 -53.5t40.5 -28t54 -12.5l39 -7l-8 -194q-45 4 -99 8q-46 3 -107 5.5t-132 2.5q-69 0 -152.5 -2t-191.5 -14z" />
<glyph unicode="&#xdf;" horiz-adv-x="1395" d="M-16 647l10 250h211q8 181 56.5 310t127.5 211t183.5 120.5t224.5 38.5q136 0 234 -41t161.5 -111.5t94 -163.5t30.5 -196q0 -75 -15 -153.5t-42 -155.5q-23 10 -50 17.5t-55 11.5t-54.5 6t-49.5 2q-63 0 -93 -18.5t-30 -43.5q0 -18 17 -32t45.5 -28t66 -29.5t78.5 -35.5 q43 -21 90 -49t86 -66t64.5 -87t25.5 -113t-26.5 -121t-82.5 -100.5t-143.5 -69t-208.5 -25.5q-79 0 -145 13t-114 38.5t-74.5 63t-26.5 86.5q0 66 38.5 106.5t106.5 59.5q18 -23 45 -51t63 -52t80 -40.5t95 -16.5q34 0 58 10.5t24 40.5q0 19 -19 36t-48.5 32t-64.5 30 t-67 31q-70 35 -122 69t-87 71.5t-52.5 80t-17.5 93.5q0 55 20 112.5t65.5 104t118.5 76.5t179 30q1 9 2 20t1.5 22.5t0.5 22v17.5q0 133 -56.5 205t-154.5 72q-59 0 -108.5 -25.5t-86 -78.5t-58 -134.5t-23.5 -193.5q-2 -101 -4.5 -207t-4.5 -206t-4.5 -189.5t-4 -158.5 t-3 -112.5t-2.5 -52.5h-331q6 73 11.5 144.5t11 151.5t10.5 173.5t10 210.5q-56 -9 -112 -17t-105 -16z" />
<glyph unicode="&#xe0;" horiz-adv-x="1069" d="M55 213q0 68 27 118.5t71.5 87t102 60t118.5 37t120.5 19t109.5 6.5q2 14 2 22.5v18.5q0 55 -32 83.5t-89 28.5q-22 0 -48.5 -5.5t-52 -19.5t-47.5 -39.5t-34 -64.5q-24 0 -59 2.5t-68 15.5t-56.5 40t-23.5 75q0 39 17 71t46.5 57.5t69 44t83.5 31t90 18.5t90 6 q92 0 166.5 -16.5t127 -54t81 -99t28.5 -150.5q0 -29 -3.5 -76.5t-7 -96.5t-7 -91.5t-3.5 -60.5q0 -22 6.5 -36.5t16.5 -23.5t22.5 -12.5t24.5 -3.5q17 0 29.5 3t27.5 11l80 -135q-49 -50 -110 -79.5t-133 -29.5q-85 0 -135 43t-68 111q-24 -32 -54.5 -60t-68.5 -49 t-84.5 -33t-103.5 -12q-69 0 -119.5 20t-83.5 53.5t-49.5 76.5t-16.5 88zM215 1403q17 12 42.5 34t52 46t50 46.5t36.5 35.5l270 -373l-111 -100zM344 254q0 -28 20 -46t58 -18q28 0 57 10.5t53 32.5t41.5 57t24.5 83h-16q-33 0 -74.5 -6.5t-77.5 -21t-61 -37t-25 -54.5z " />
<glyph unicode="&#xe1;" horiz-adv-x="1069" d="M55 213q0 68 27 118.5t71.5 87t102 60t118.5 37t120.5 19t109.5 6.5q2 14 2 22.5v18.5q0 55 -32 83.5t-89 28.5q-22 0 -48.5 -5.5t-52 -19.5t-47.5 -39.5t-34 -64.5q-24 0 -59 2.5t-68 15.5t-56.5 40t-23.5 75q0 39 17 71t46.5 57.5t69 44t83.5 31t90 18.5t90 6 q92 0 166.5 -16.5t127 -54t81 -99t28.5 -150.5q0 -29 -3.5 -76.5t-7 -96.5t-7 -91.5t-3.5 -60.5q0 -22 6.5 -36.5t16.5 -23.5t22.5 -12.5t24.5 -3.5q17 0 29.5 3t27.5 11l80 -135q-49 -50 -110 -79.5t-133 -29.5q-85 0 -135 43t-68 111q-24 -32 -54.5 -60t-68.5 -49 t-84.5 -33t-103.5 -12q-69 0 -119.5 20t-83.5 53.5t-49.5 76.5t-16.5 88zM344 254q0 -28 20 -46t58 -18q28 0 57 10.5t53 32.5t41.5 57t24.5 83h-16q-33 0 -74.5 -6.5t-77.5 -21t-61 -37t-25 -54.5zM374 1186l252 379q14 -14 39 -36t52.5 -45t53.5 -42t42 -27l-330 -323z " />
<glyph unicode="&#xe2;" horiz-adv-x="1069" d="M55 213q0 68 27 118.5t71.5 87t102 60t118.5 37t120.5 19t109.5 6.5q2 14 2 22.5v18.5q0 55 -32 83.5t-89 28.5q-22 0 -48.5 -5.5t-52 -19.5t-47.5 -39.5t-34 -64.5q-24 0 -59 2.5t-68 15.5t-56.5 40t-23.5 75q0 39 17 71t46.5 57.5t69 44t83.5 31t90 18.5t90 6 q92 0 166.5 -16.5t127 -54t81 -99t28.5 -150.5q0 -29 -3.5 -76.5t-7 -96.5t-7 -91.5t-3.5 -60.5q0 -22 6.5 -36.5t16.5 -23.5t22.5 -12.5t24.5 -3.5q17 0 29.5 3t27.5 11l80 -135q-49 -50 -110 -79.5t-133 -29.5q-85 0 -135 43t-68 111q-24 -32 -54.5 -60t-68.5 -49 t-84.5 -33t-103.5 -12q-69 0 -119.5 20t-83.5 53.5t-49.5 76.5t-16.5 88zM204 1194l340 371l297 -371l-104 -102l-207 182l-225 -182zM344 254q0 -28 20 -46t58 -18q28 0 57 10.5t53 32.5t41.5 57t24.5 83h-16q-33 0 -74.5 -6.5t-77.5 -21t-61 -37t-25 -54.5z" />
<glyph unicode="&#xe3;" horiz-adv-x="1069" d="M55 213q0 68 27 118.5t71.5 87t102 60t118.5 37t120.5 19t109.5 6.5q2 14 2 22.5v18.5q0 55 -32 83.5t-89 28.5q-22 0 -48.5 -5.5t-52 -19.5t-47.5 -39.5t-34 -64.5q-24 0 -59 2.5t-68 15.5t-56.5 40t-23.5 75q0 39 17 71t46.5 57.5t69 44t83.5 31t90 18.5t90 6 q92 0 166.5 -16.5t127 -54t81 -99t28.5 -150.5q0 -29 -3.5 -76.5t-7 -96.5t-7 -91.5t-3.5 -60.5q0 -22 6.5 -36.5t16.5 -23.5t22.5 -12.5t24.5 -3.5q17 0 29.5 3t27.5 11l80 -135q-49 -50 -110 -79.5t-133 -29.5q-85 0 -135 43t-68 111q-24 -32 -54.5 -60t-68.5 -49 t-84.5 -33t-103.5 -12q-69 0 -119.5 20t-83.5 53.5t-49.5 76.5t-16.5 88zM141 1169q19 39 46.5 83.5t61 82.5t73 63t84.5 25q40 0 81.5 -17t80 -38t71 -38t55.5 -17t45.5 16.5t40.5 36.5q21 23 41 53l99 -78q-20 -38 -46.5 -82t-60 -81t-72.5 -61.5t-84 -24.5q-41 0 -82 17 t-79.5 38t-71 38t-55.5 17t-45 -17.5t-40 -37.5q-21 -25 -40 -55zM344 254q0 -28 20 -46t58 -18q28 0 57 10.5t53 32.5t41.5 57t24.5 83h-16q-33 0 -74.5 -6.5t-77.5 -21t-61 -37t-25 -54.5z" />
<glyph unicode="&#xe4;" horiz-adv-x="1069" d="M55 213q0 68 27 118.5t71.5 87t102 60t118.5 37t120.5 19t109.5 6.5q2 14 2 22.5v18.5q0 55 -32 83.5t-89 28.5q-22 0 -48.5 -5.5t-52 -19.5t-47.5 -39.5t-34 -64.5q-24 0 -59 2.5t-68 15.5t-56.5 40t-23.5 75q0 39 17 71t46.5 57.5t69 44t83.5 31t90 18.5t90 6 q92 0 166.5 -16.5t127 -54t81 -99t28.5 -150.5q0 -29 -3.5 -76.5t-7 -96.5t-7 -91.5t-3.5 -60.5q0 -22 6.5 -36.5t16.5 -23.5t22.5 -12.5t24.5 -3.5q17 0 29.5 3t27.5 11l80 -135q-49 -50 -110 -79.5t-133 -29.5q-85 0 -135 43t-68 111q-24 -32 -54.5 -60t-68.5 -49 t-84.5 -33t-103.5 -12q-69 0 -119.5 20t-83.5 53.5t-49.5 76.5t-16.5 88zM192 1257q0 33 10 63t29 52.5t46 35.5t61 13q28 0 53 -10t44 -29t29.5 -47t10.5 -65q0 -34 -9.5 -64.5t-27.5 -53.5t-45 -36.5t-61 -13.5q-29 0 -54.5 10t-44.5 29.5t-30 48.5t-11 67zM344 254 q0 -28 20 -46t58 -18q28 0 57 10.5t53 32.5t41.5 57t24.5 83h-16q-33 0 -74.5 -6.5t-77.5 -21t-61 -37t-25 -54.5zM575 1257q0 33 10 63t29.5 52.5t46.5 35.5t62 13q28 0 52.5 -10t43 -29t29 -47t10.5 -65q0 -34 -9.5 -64.5t-28.5 -53.5t-46 -36.5t-61 -13.5q-28 0 -53 10 t-44 29.5t-30 48.5t-11 67z" />
<glyph unicode="&#xe5;" horiz-adv-x="1069" d="M55 213q0 68 27 118.5t71.5 87t102 60t118.5 37t120.5 19t109.5 6.5q2 14 2 22.5v18.5q0 55 -32 83.5t-89 28.5q-22 0 -48.5 -5.5t-52 -19.5t-47.5 -39.5t-34 -64.5q-24 0 -59 2.5t-68 15.5t-56.5 40t-23.5 75q0 39 17 71t46.5 57.5t69 44t83.5 31t90 18.5t90 6 q92 0 166.5 -16.5t127 -54t81 -99t28.5 -150.5q0 -29 -3.5 -76.5t-7 -96.5t-7 -91.5t-3.5 -60.5q0 -22 6.5 -36.5t16.5 -23.5t22.5 -12.5t24.5 -3.5q17 0 29.5 3t27.5 11l80 -135q-49 -50 -110 -79.5t-133 -29.5q-85 0 -135 43t-68 111q-24 -32 -54.5 -60t-68.5 -49 t-84.5 -33t-103.5 -12q-69 0 -119.5 20t-83.5 53.5t-49.5 76.5t-16.5 88zM270 1311q0 50 20 96t56.5 81t88.5 56t116 21q60 0 103.5 -17t72 -46t42 -67t13.5 -79q0 -56 -22 -104.5t-60 -84t-88.5 -55.5t-107.5 -20q-65 0 -109.5 19t-72 49.5t-40 70t-12.5 80.5zM344 254 q0 -28 20 -46t58 -18q28 0 57 10.5t53 32.5t41.5 57t24.5 83h-16q-33 0 -74.5 -6.5t-77.5 -21t-61 -37t-25 -54.5zM426 1327q0 -19 6 -38.5t18.5 -35.5t31.5 -26t46 -10q47 0 72.5 28t25.5 82q0 18 -5.5 38t-17.5 36.5t-31 27.5t-46 11q-49 0 -74.5 -33t-25.5 -80z" />
<glyph unicode="&#xe6;" horiz-adv-x="1516" d="M55 213q0 68 27 118.5t71.5 87t102 60t118.5 37t120.5 19t109.5 6.5q2 14 2 22.5v18.5q0 55 -32 83.5t-89 28.5q-22 0 -48.5 -5.5t-52 -19.5t-47.5 -39.5t-34 -64.5q-24 0 -59 2.5t-68 15.5t-56.5 40t-23.5 75q0 39 17 71t46.5 57.5t69 44t83.5 31t90 18.5t90 6 q94 0 166.5 -18t121.5 -58q51 37 120.5 56.5t150.5 19.5q98 0 170 -30t119.5 -81t70.5 -119t23 -143q0 -28 -3 -57.5t-6 -54.5q-4 -29 -8 -56q-60 -9 -135 -12.5t-168 -3.5q-31 0 -65 0.5t-67.5 1t-65 1t-56.5 1.5q8 -37 27 -68.5t49.5 -54t73.5 -35t98 -12.5q25 0 54.5 2 t60.5 7t61.5 12.5t58.5 19.5l64 -125q-82 -69 -184.5 -106.5t-227.5 -37.5q-79 0 -138 18.5t-101.5 45t-69 56t-41.5 50.5q-54 -80 -131 -125t-190 -45q-69 0 -119.5 20t-83.5 53.5t-49.5 76.5t-16.5 88zM344 254q0 -28 20 -46t58 -18q28 0 57 10.5t53 32.5t41.5 57t24.5 83 h-16q-33 0 -74.5 -6.5t-77.5 -21t-61 -37t-25 -54.5zM874 539q39 1 85 5t85.5 8t67.5 7.5t33 5.5v15q0 55 -27.5 91t-81.5 36q-25 0 -50.5 -10t-47 -31t-38.5 -52.5t-26 -74.5z" />
<glyph unicode="&#xe7;" horiz-adv-x="948" d="M39 406q0 107 36.5 202t104 165.5t163.5 111.5t214 41q74 0 137.5 -18.5t110.5 -50.5t73.5 -75t26.5 -92q0 -97 -73 -145.5t-216 -48.5q-2 41 -7.5 79t-18 67.5t-33.5 47t-53 17.5q-36 0 -65 -18t-49 -52t-31 -81.5t-11 -106.5q0 -64 18 -110.5t51 -76.5t79.5 -44.5 t103.5 -14.5q51 0 115 11t121 34l61 -129q-72 -62 -166 -98t-203 -44l-8 -49q30 -7 57 -19.5t47 -32t32 -46.5t12 -63q0 -48 -20.5 -90t-57 -72.5t-85.5 -48t-106 -17.5q-65 0 -98 30t-33 75q0 26 11 51t43 51q24 -22 62.5 -41.5t78.5 -19.5q26 0 40.5 12.5t14.5 34.5 q0 19 -12 33t-33.5 23.5t-51 14t-63.5 4.5q11 45 20 89.5t17 85.5q-83 10 -149 44.5t-112 89t-70.5 128t-24.5 162.5z" />
<glyph unicode="&#xe8;" horiz-adv-x="1010" d="M39 406q0 104 32 198.5t93.5 166t151 113.5t204.5 42q98 0 174 -27.5t128 -77t79 -118t27 -150.5q0 -28 -3 -57.5t-6 -54.5q-4 -29 -8 -56q-60 -9 -142 -12.5t-175 -3.5q-31 0 -65 0.5t-67.5 1t-65 1t-56.5 1.5q7 -37 26 -68.5t50 -54t73.5 -35t98.5 -12.5q51 0 114.5 9 t120.5 32l64 -125q-82 -69 -184.5 -106.5t-227.5 -37.5q-104 0 -185.5 31.5t-137 88.5t-84.5 136.5t-29 174.5zM223 1403q17 12 42.5 34t52 46t50 46.5t36.5 35.5l270 -373l-111 -100zM350 539q39 1 84.5 5t85.5 8t68 7.5t33 5.5v15q0 55 -27.5 91t-81.5 36q-26 0 -51 -10 t-47 -31t-38.5 -52.5t-25.5 -74.5z" />
<glyph unicode="&#xe9;" horiz-adv-x="1010" d="M39 406q0 104 32 198.5t93.5 166t151 113.5t204.5 42q98 0 174 -27.5t128 -77t79 -118t27 -150.5q0 -28 -3 -57.5t-6 -54.5q-4 -29 -8 -56q-60 -9 -142 -12.5t-175 -3.5q-31 0 -65 0.5t-67.5 1t-65 1t-56.5 1.5q7 -37 26 -68.5t50 -54t73.5 -35t98.5 -12.5q51 0 114.5 9 t120.5 32l64 -125q-82 -69 -184.5 -106.5t-227.5 -37.5q-104 0 -185.5 31.5t-137 88.5t-84.5 136.5t-29 174.5zM350 539q39 1 84.5 5t85.5 8t68 7.5t33 5.5v15q0 55 -27.5 91t-81.5 36q-26 0 -51 -10t-47 -31t-38.5 -52.5t-25.5 -74.5zM391 1186l252 379q14 -14 39 -36 t52.5 -45t53.5 -42t42 -27l-330 -323z" />
<glyph unicode="&#xea;" horiz-adv-x="1010" d="M39 406q0 104 32 198.5t93.5 166t151 113.5t204.5 42q98 0 174 -27.5t128 -77t79 -118t27 -150.5q0 -28 -3 -57.5t-6 -54.5q-4 -29 -8 -56q-60 -9 -142 -12.5t-175 -3.5q-31 0 -65 0.5t-67.5 1t-65 1t-56.5 1.5q7 -37 26 -68.5t50 -54t73.5 -35t98.5 -12.5q51 0 114.5 9 t120.5 32l64 -125q-82 -69 -184.5 -106.5t-227.5 -37.5q-104 0 -185.5 31.5t-137 88.5t-84.5 136.5t-29 174.5zM208 1194l340 371l297 -371l-104 -102l-207 182l-225 -182zM350 539q39 1 84.5 5t85.5 8t68 7.5t33 5.5v15q0 55 -27.5 91t-81.5 36q-26 0 -51 -10t-47 -31 t-38.5 -52.5t-25.5 -74.5z" />
<glyph unicode="&#xeb;" horiz-adv-x="1010" d="M39 406q0 104 32 198.5t93.5 166t151 113.5t204.5 42q98 0 174 -27.5t128 -77t79 -118t27 -150.5q0 -28 -3 -57.5t-6 -54.5q-4 -29 -8 -56q-60 -9 -142 -12.5t-175 -3.5q-31 0 -65 0.5t-67.5 1t-65 1t-56.5 1.5q7 -37 26 -68.5t50 -54t73.5 -35t98.5 -12.5q51 0 114.5 9 t120.5 32l64 -125q-82 -69 -184.5 -106.5t-227.5 -37.5q-104 0 -185.5 31.5t-137 88.5t-84.5 136.5t-29 174.5zM194 1257q0 33 10 63t29 52.5t46 35.5t61 13q28 0 53 -10t44 -29t29.5 -47t10.5 -65q0 -34 -9.5 -64.5t-27.5 -53.5t-45 -36.5t-61 -13.5q-29 0 -54.5 10 t-44.5 29.5t-30 48.5t-11 67zM350 539q39 1 84.5 5t85.5 8t68 7.5t33 5.5v15q0 55 -27.5 91t-81.5 36q-26 0 -51 -10t-47 -31t-38.5 -52.5t-25.5 -74.5zM577 1257q0 33 10 63t29.5 52.5t46.5 35.5t62 13q28 0 52.5 -10t43 -29t29 -47t10.5 -65q0 -34 -9.5 -64.5t-28.5 -53.5 t-46 -36.5t-61 -13.5q-28 0 -53 10t-44 29.5t-30 48.5t-11 67z" />
<glyph unicode="&#xec;" horiz-adv-x="616" d="M-59 1403q17 12 42.5 34t52 46t50 46.5t36.5 35.5l270 -373l-111 -100zM27 694l6 162q136 5 254.5 24.5t220.5 45.5q-22 -143 -39.5 -290.5t-17.5 -283.5q0 -100 38.5 -145t100.5 -45l-6 -162h-23q-132 0 -240.5 -8t-209.5 -33q10 70 20.5 137.5t18.5 133.5t13 132t5 134 q0 99 -33.5 145.5t-107.5 52.5z" />
<glyph unicode="&#xed;" horiz-adv-x="616" d="M27 694l6 162q136 5 254.5 24.5t220.5 45.5q-22 -143 -39.5 -290.5t-17.5 -283.5q0 -100 38.5 -145t100.5 -45l-6 -162h-23q-132 0 -240.5 -8t-209.5 -33q10 70 20.5 137.5t18.5 133.5t13 132t5 134q0 99 -33.5 145.5t-107.5 52.5zM200 1186l252 379q14 -14 39 -36 t52.5 -45t53.5 -42t42 -27l-330 -323z" />
<glyph unicode="&#xee;" horiz-adv-x="616" d="M19 1194l340 371l297 -371l-104 -102l-207 182l-225 -182zM27 694l6 162q136 5 254.5 24.5t220.5 45.5q-22 -143 -39.5 -290.5t-17.5 -283.5q0 -100 38.5 -145t100.5 -45l-6 -162h-23q-132 0 -240.5 -8t-209.5 -33q10 70 20.5 137.5t18.5 133.5t13 132t5 134 q0 99 -33.5 145.5t-107.5 52.5z" />
<glyph unicode="&#xef;" horiz-adv-x="616" d="M11 1257q0 33 10 63t29 52.5t46 35.5t61 13q28 0 53 -10t44 -29t29.5 -47t10.5 -65q0 -34 -9.5 -64.5t-27.5 -53.5t-45 -36.5t-61 -13.5q-29 0 -54.5 10t-44.5 29.5t-30 48.5t-11 67zM27 694l6 162q136 5 254.5 24.5t220.5 45.5q-22 -143 -39.5 -290.5t-17.5 -283.5 q0 -100 38.5 -145t100.5 -45l-6 -162h-23q-132 0 -240.5 -8t-209.5 -33q10 70 20.5 137.5t18.5 133.5t13 132t5 134q0 99 -33.5 145.5t-107.5 52.5zM394 1257q0 33 10 63t29.5 52.5t46.5 35.5t62 13q28 0 52.5 -10t43 -29t29 -47t10.5 -65q0 -34 -9.5 -64.5t-28.5 -53.5 t-46 -36.5t-61 -13.5q-28 0 -53 10t-44 29.5t-30 48.5t-11 67z" />
<glyph unicode="&#xf0;" horiz-adv-x="1073" d="M47 387q0 127 42 227.5t112.5 169.5t162.5 105.5t193 36.5q22 0 50.5 -2.5t56.5 -5.5q-11 52 -26 103t-38 99q-80 -37 -151.5 -73.5t-126.5 -71.5l8 211q17 8 39 18.5t45.5 21t48 21l45.5 19.5q-45 51 -101.5 87t-127.5 56l6 168q143 0 265 -57.5t216 -159.5 q53 18 103.5 32.5t95.5 26.5l49 -127l-154 -57q68 -112 102.5 -245t34.5 -281q0 -161 -33.5 -296t-99.5 -232.5t-164.5 -151.5t-228.5 -54q-101 0 -179.5 32.5t-133 89t-83 131.5t-28.5 159zM356 455q0 -70 13 -117.5t35.5 -76.5t51 -41.5t60.5 -12.5q51 0 83 34.5t51 96 t26.5 145.5t9.5 183q-32 14 -72 20t-75 6q-40 0 -73.5 -17t-58 -48.5t-38 -75t-13.5 -96.5z" />
<glyph unicode="&#xf1;" horiz-adv-x="1176" d="M20 694l7 162q120 5 224 25t193 45l-38 -199q34 39 73.5 75t85 63.5t98 44t111.5 16.5q128 0 194 -82t66 -240q0 -33 -3 -73.5t-6 -78.5t-6 -69t-3 -45q0 -37 8 -69t25.5 -56t43.5 -37.5t62 -13.5l-6 -162h-21q-72 0 -130.5 -2t-110.5 -6.5t-102 -12.5t-105 -20 q13 72 23.5 151.5t18 154.5t11.5 138.5t4 104.5q0 43 -7.5 72t-21.5 46.5t-35.5 25t-49.5 7.5q-45 0 -88 -15t-74 -34q-2 -22 -4 -59.5t-4 -85.5t-3 -104.5t-0.5 -117t2 -122.5t5.5 -121q-58 0 -106.5 -3.5t-90.5 -9t-79.5 -13t-71.5 -15.5q13 72 22.5 150t16.5 150 t10.5 134t3.5 103q0 45 -7 80.5t-23.5 60.5t-43.5 39.5t-68 17.5zM219 1169q19 39 46.5 83.5t61 82.5t73 63t84.5 25q40 0 81.5 -17t80 -38t71 -38t55.5 -17t45.5 16.5t40.5 36.5q21 23 41 53l99 -78q-20 -38 -46.5 -82t-60 -81t-72.5 -61.5t-84 -24.5q-41 0 -82 17 t-79.5 38t-71 38t-55.5 17t-45 -17.5t-40 -37.5q-21 -25 -40 -55z" />
<glyph unicode="&#xf2;" horiz-adv-x="1051" d="M39 414q0 99 36.5 191.5t104 163.5t163.5 114t214 43q117 0 201 -32.5t139 -89.5t81 -134t26 -166q0 -111 -41.5 -208t-111.5 -168t-162.5 -112t-194.5 -41q-127 0 -214 35.5t-140.5 96t-77 140t-23.5 167.5zM208 1403q17 12 42.5 34t52 46t50 46.5t36.5 35.5l270 -373 l-111 -100zM348 449q0 -58 13.5 -104.5t36.5 -79.5t54 -50.5t66 -17.5q37 0 69.5 17.5t56 50.5t37 79.5t13.5 104.5q0 60 -13.5 107.5t-37 81t-56 51.5t-69.5 18q-35 0 -66 -18t-54 -51.5t-36.5 -81t-13.5 -107.5z" />
<glyph unicode="&#xf3;" horiz-adv-x="1051" d="M39 414q0 99 36.5 191.5t104 163.5t163.5 114t214 43q117 0 201 -32.5t139 -89.5t81 -134t26 -166q0 -111 -41.5 -208t-111.5 -168t-162.5 -112t-194.5 -41q-127 0 -214 35.5t-140.5 96t-77 140t-23.5 167.5zM348 449q0 -58 13.5 -104.5t36.5 -79.5t54 -50.5t66 -17.5 q37 0 69.5 17.5t56 50.5t37 79.5t13.5 104.5q0 60 -13.5 107.5t-37 81t-56 51.5t-69.5 18q-35 0 -66 -18t-54 -51.5t-36.5 -81t-13.5 -107.5zM397 1186l252 379q14 -14 39 -36t52.5 -45t53.5 -42t42 -27l-330 -323z" />
<glyph unicode="&#xf4;" horiz-adv-x="1051" d="M39 414q0 99 36.5 191.5t104 163.5t163.5 114t214 43q117 0 201 -32.5t139 -89.5t81 -134t26 -166q0 -111 -41.5 -208t-111.5 -168t-162.5 -112t-194.5 -41q-127 0 -214 35.5t-140.5 96t-77 140t-23.5 167.5zM243 1194l340 371l297 -371l-104 -102l-207 182l-225 -182z M348 449q0 -58 13.5 -104.5t36.5 -79.5t54 -50.5t66 -17.5q37 0 69.5 17.5t56 50.5t37 79.5t13.5 104.5q0 60 -13.5 107.5t-37 81t-56 51.5t-69.5 18q-35 0 -66 -18t-54 -51.5t-36.5 -81t-13.5 -107.5z" />
<glyph unicode="&#xf5;" horiz-adv-x="1051" d="M39 414q0 99 36.5 191.5t104 163.5t163.5 114t214 43q117 0 201 -32.5t139 -89.5t81 -134t26 -166q0 -111 -41.5 -208t-111.5 -168t-162.5 -112t-194.5 -41q-127 0 -214 35.5t-140.5 96t-77 140t-23.5 167.5zM161 1169q19 39 46.5 83.5t61 82.5t73 63t84.5 25 q40 0 81.5 -17t80 -38t71 -38t55.5 -17t45.5 16.5t40.5 36.5q21 23 41 53l99 -78q-20 -38 -46.5 -82t-60 -81t-72.5 -61.5t-84 -24.5q-41 0 -82 17t-79.5 38t-71 38t-55.5 17t-45 -17.5t-40 -37.5q-21 -25 -40 -55zM348 449q0 -58 13.5 -104.5t36.5 -79.5t54 -50.5t66 -17.5 q37 0 69.5 17.5t56 50.5t37 79.5t13.5 104.5q0 60 -13.5 107.5t-37 81t-56 51.5t-69.5 18q-35 0 -66 -18t-54 -51.5t-36.5 -81t-13.5 -107.5z" />
<glyph unicode="&#xf6;" horiz-adv-x="1051" d="M39 414q0 99 36.5 191.5t104 163.5t163.5 114t214 43q117 0 201 -32.5t139 -89.5t81 -134t26 -166q0 -111 -41.5 -208t-111.5 -168t-162.5 -112t-194.5 -41q-127 0 -214 35.5t-140.5 96t-77 140t-23.5 167.5zM215 1257q0 33 10 63t29 52.5t46 35.5t61 13q28 0 53 -10 t44 -29t29.5 -47t10.5 -65q0 -34 -9.5 -64.5t-27.5 -53.5t-45 -36.5t-61 -13.5q-29 0 -54.5 10t-44.5 29.5t-30 48.5t-11 67zM348 449q0 -58 13.5 -104.5t36.5 -79.5t54 -50.5t66 -17.5q37 0 69.5 17.5t56 50.5t37 79.5t13.5 104.5q0 60 -13.5 107.5t-37 81t-56 51.5 t-69.5 18q-35 0 -66 -18t-54 -51.5t-36.5 -81t-13.5 -107.5zM598 1257q0 33 10 63t29.5 52.5t46.5 35.5t62 13q28 0 52.5 -10t43 -29t29 -47t10.5 -65q0 -34 -9.5 -64.5t-28.5 -53.5t-46 -36.5t-61 -13.5q-28 0 -53 10t-44 29.5t-30 48.5t-11 67z" />
<glyph unicode="&#xf7;" horiz-adv-x="1104" d="M82 549v188h942v-188h-942zM377 279q0 40 12.5 68.5t33.5 47t48 27t55 8.5t55.5 -8.5t49 -27t34.5 -47t13 -68.5q0 -36 -11.5 -66t-32 -51.5t-48.5 -33t-60 -11.5t-59 11.5t-47 33t-31.5 51.5t-11.5 66zM399 1004q0 40 12.5 68.5t33.5 47t48 27t56 8.5q28 0 55.5 -8.5 t48.5 -27t34 -47t13 -68.5q0 -36 -11.5 -66t-32 -51.5t-48 -33t-59.5 -11.5t-59 11.5t-47.5 33t-32 51.5t-11.5 66z" />
<glyph unicode="&#xf8;" horiz-adv-x="1157" d="M0 -23l166 164q-38 57 -56 126t-18 147q0 99 36.5 191.5t104 163.5t163.5 114t214 43q90 0 159 -19.5t122 -54.5l137 135l88 -88l-135 -133q38 -54 57 -120.5t19 -141.5q0 -111 -41.5 -208t-111.5 -168t-162.5 -112t-194.5 -41q-96 0 -168 20.5t-125 55.5l-166 -162z M401 449q0 -20 0.5 -37.5t4.5 -34.5l280 274q-23 26 -52 41t-63 15q-35 0 -66 -18t-54 -51.5t-36.5 -81t-13.5 -107.5zM459 254q21 -28 50.5 -42.5t61.5 -14.5q38 0 70.5 17.5t56 50.5t37 79.5t13.5 104.5q0 42 -9 81z" />
<glyph unicode="&#xf9;" horiz-adv-x="1184" d="M18 690l7 162q67 2 128.5 9t117.5 17t108.5 22.5t103.5 25.5q-11 -65 -20.5 -141.5t-17.5 -152.5t-12.5 -146t-4.5 -121q0 -35 10 -58.5t27 -38t41 -20.5t53 -6q42 0 81 15t67 32q1 21 2.5 56t3 79.5t2 95.5t0.5 103q0 62 -0.5 127t-5.5 131q105 0 195 14.5t153 30.5 q-16 -88 -26.5 -175.5t-16.5 -164t-8 -137t-2 -93.5q0 -94 39.5 -141t113.5 -53l-6 -162h-14q-58 0 -105.5 -2.5t-90 -7.5t-83.5 -12.5t-86 -18.5l39 209q-27 -35 -70.5 -69t-97 -62t-113.5 -45t-120 -17t-111 19t-88.5 57.5t-58.5 96t-21 135.5q0 66 7 129.5t7 117.5 q0 31 -8 58.5t-23.5 49t-39.5 35.5t-56 17zM237 1403q17 12 42.5 34t52 46t50 46.5t36.5 35.5l270 -373l-111 -100z" />
<glyph unicode="&#xfa;" horiz-adv-x="1184" d="M18 690l7 162q67 2 128.5 9t117.5 17t108.5 22.5t103.5 25.5q-11 -65 -20.5 -141.5t-17.5 -152.5t-12.5 -146t-4.5 -121q0 -35 10 -58.5t27 -38t41 -20.5t53 -6q42 0 81 15t67 32q1 21 2.5 56t3 79.5t2 95.5t0.5 103q0 62 -0.5 127t-5.5 131q105 0 195 14.5t153 30.5 q-16 -88 -26.5 -175.5t-16.5 -164t-8 -137t-2 -93.5q0 -94 39.5 -141t113.5 -53l-6 -162h-14q-58 0 -105.5 -2.5t-90 -7.5t-83.5 -12.5t-86 -18.5l39 209q-27 -35 -70.5 -69t-97 -62t-113.5 -45t-120 -17t-111 19t-88.5 57.5t-58.5 96t-21 135.5q0 66 7 129.5t7 117.5 q0 31 -8 58.5t-23.5 49t-39.5 35.5t-56 17zM446 1186l252 379q14 -14 39 -36t52.5 -45t53.5 -42t42 -27l-330 -323z" />
<glyph unicode="&#xfb;" horiz-adv-x="1184" d="M18 690l7 162q67 2 128.5 9t117.5 17t108.5 22.5t103.5 25.5q-11 -65 -20.5 -141.5t-17.5 -152.5t-12.5 -146t-4.5 -121q0 -35 10 -58.5t27 -38t41 -20.5t53 -6q42 0 81 15t67 32q1 21 2.5 56t3 79.5t2 95.5t0.5 103q0 62 -0.5 127t-5.5 131q105 0 195 14.5t153 30.5 q-16 -88 -26.5 -175.5t-16.5 -164t-8 -137t-2 -93.5q0 -94 39.5 -141t113.5 -53l-6 -162h-14q-58 0 -105.5 -2.5t-90 -7.5t-83.5 -12.5t-86 -18.5l39 209q-27 -35 -70.5 -69t-97 -62t-113.5 -45t-120 -17t-111 19t-88.5 57.5t-58.5 96t-21 135.5q0 66 7 129.5t7 117.5 q0 31 -8 58.5t-23.5 49t-39.5 35.5t-56 17zM286 1194l340 371l297 -371l-104 -102l-207 182l-225 -182z" />
<glyph unicode="&#xfc;" horiz-adv-x="1184" d="M18 690l7 162q67 2 128.5 9t117.5 17t108.5 22.5t103.5 25.5q-11 -65 -20.5 -141.5t-17.5 -152.5t-12.5 -146t-4.5 -121q0 -35 10 -58.5t27 -38t41 -20.5t53 -6q42 0 81 15t67 32q1 21 2.5 56t3 79.5t2 95.5t0.5 103q0 62 -0.5 127t-5.5 131q105 0 195 14.5t153 30.5 q-16 -88 -26.5 -175.5t-16.5 -164t-8 -137t-2 -93.5q0 -94 39.5 -141t113.5 -53l-6 -162h-14q-58 0 -105.5 -2.5t-90 -7.5t-83.5 -12.5t-86 -18.5l39 209q-27 -35 -70.5 -69t-97 -62t-113.5 -45t-120 -17t-111 19t-88.5 57.5t-58.5 96t-21 135.5q0 66 7 129.5t7 117.5 q0 31 -8 58.5t-23.5 49t-39.5 35.5t-56 17zM268 1257q0 33 10 63t29 52.5t46 35.5t61 13q28 0 53 -10t44 -29t29.5 -47t10.5 -65q0 -34 -9.5 -64.5t-27.5 -53.5t-45 -36.5t-61 -13.5q-29 0 -54.5 10t-44.5 29.5t-30 48.5t-11 67zM651 1257q0 33 10 63t29.5 52.5t46.5 35.5 t62 13q28 0 52.5 -10t43 -29t29 -47t10.5 -65q0 -34 -9.5 -64.5t-28.5 -53.5t-46 -36.5t-61 -13.5q-28 0 -53 10t-44 29.5t-30 48.5t-11 67z" />
<glyph unicode="&#xfd;" horiz-adv-x="1044" d="M-82 -385q0 25 7 50t18.5 47.5t27 41.5t33.5 31q35 -26 68 -37.5t73 -11.5t74.5 13.5t63 35t51 48t37.5 52.5q-79 249 -175.5 508t-193.5 508h363q12 -54 29 -118.5t36 -133.5t39 -138t39 -131t36 -114t29 -86q14 33 30 76.5t29.5 91.5t22.5 98t9 95q0 89 -18.5 168.5 t-55.5 138.5q49 38 94.5 58t103.5 20q42 0 77 -11.5t60.5 -36t39.5 -62.5t14 -91q0 -83 -30.5 -187t-88 -225.5t-141.5 -258.5t-191 -285q-45 -63 -96 -121t-106 -103t-112.5 -71.5t-115.5 -26.5q-44 0 -78 12.5t-56.5 35t-34 53t-11.5 67.5zM391 1186l252 379 q14 -14 39 -36t52.5 -45t53.5 -42t42 -27l-330 -323z" />
<glyph unicode="&#xfe;" horiz-adv-x="1069" d="M12 1339l6 168q55 2 117 8.5t123 16t116.5 21.5t96.5 24l-111 -844q46 55 91 92.5t89 59.5t87.5 31.5t85.5 9.5q79 0 137 -29.5t95.5 -80t56 -117t18.5 -140.5q0 -146 -45.5 -255.5t-120.5 -182.5t-170.5 -109.5t-194.5 -36.5q-9 0 -22.5 0.5t-27.5 1t-28 1.5t-24 2 q-1 -45 -1.5 -101t10.5 -106t40 -84t88 -35l-6 -162h-22q-133 0 -241.5 -10t-209.5 -35q27 247 45.5 471.5t30.5 435.5t17 413.5t5 406.5q0 34 -2.5 57.5t-13.5 48.5t-39 41t-76 18zM393 197q31 -8 60.5 -11.5t58.5 -3.5q41 0 77 23t63 63.5t43 95.5t16 119q0 84 -34.5 130 t-94.5 46q-44 0 -88 -14.5t-78 -34.5q-6 -63 -10 -135t-7 -134q-4 -73 -6 -144z" />
<glyph unicode="&#xff;" horiz-adv-x="1044" d="M-82 -385q0 25 7 50t18.5 47.5t27 41.5t33.5 31q35 -26 68 -37.5t73 -11.5t74.5 13.5t63 35t51 48t37.5 52.5q-79 249 -175.5 508t-193.5 508h363q12 -54 29 -118.5t36 -133.5t39 -138t39 -131t36 -114t29 -86q14 33 30 76.5t29.5 91.5t22.5 98t9 95q0 89 -18.5 168.5 t-55.5 138.5q49 38 94.5 58t103.5 20q42 0 77 -11.5t60.5 -36t39.5 -62.5t14 -91q0 -83 -30.5 -187t-88 -225.5t-141.5 -258.5t-191 -285q-45 -63 -96 -121t-106 -103t-112.5 -71.5t-115.5 -26.5q-44 0 -78 12.5t-56.5 35t-34 53t-11.5 67.5zM192 1257q0 33 10 63t29 52.5 t46 35.5t61 13q28 0 53 -10t44 -29t29.5 -47t10.5 -65q0 -34 -9.5 -64.5t-27.5 -53.5t-45 -36.5t-61 -13.5q-29 0 -54.5 10t-44.5 29.5t-30 48.5t-11 67zM575 1257q0 33 10 63t29.5 52.5t46.5 35.5t62 13q28 0 52.5 -10t43 -29t29 -47t10.5 -65q0 -34 -9.5 -64.5 t-28.5 -53.5t-46 -36.5t-61 -13.5q-28 0 -53 10t-44 29.5t-30 48.5t-11 67z" />
<glyph unicode="&#x152;" horiz-adv-x="2185" d="M76 688q0 103 23.5 198.5t67.5 178.5t108.5 150.5t147 115.5t181.5 74.5t213 26.5q69 0 130.5 -12t117.5 -34q45 -3 89 -5.5t91 -4t99 -2t114 -0.5q150 0 310.5 6t334.5 17l-30 -471h-232l-6 55q-5 38 -15 68t-29.5 51.5t-49.5 34.5t-74 18l-246 25l-16 -373l399 16 l-10 -248l-397 27l-6 -377l237 17q58 4 96.5 19.5t64 45t42 72.5t29.5 102h239l-59 -499q-164 14 -343.5 21t-369.5 7q-49 0 -91 -0.5t-81.5 -1.5t-79 -2.5t-84.5 -3.5q-52 -20 -109 -30.5t-116 -10.5q-177 0 -306.5 58t-215 157.5t-127 232t-41.5 281.5zM440 735 q0 -112 24 -212.5t68 -176t107.5 -120t142.5 -44.5q81 0 141.5 42.5t100.5 111t60 153.5t20 170q0 111 -24 211t-68 175.5t-107.5 120t-142.5 44.5q-81 0 -141.5 -43t-100.5 -111.5t-60 -153t-20 -167.5z" />
<glyph unicode="&#x153;" horiz-adv-x="1647" d="M39 414q0 99 36.5 191.5t104 163.5t163.5 114t214 43q103 0 181 -26t130 -71q57 45 128 71t161 26q98 0 174 -27.5t128 -77t79 -118t27 -150.5q0 -28 -3 -57.5t-6 -54.5q-4 -29 -8 -56q-60 -9 -142 -12.5t-175 -3.5q-31 0 -65 0.5t-67.5 1t-65 1t-56.5 1.5q7 -35 25 -66 t48 -54t74 -36.5t105 -13.5q51 0 112.5 9t118.5 32l64 -125q-82 -69 -184.5 -106.5t-227.5 -37.5q-102 0 -177.5 28.5t-131.5 82.5q-63 -53 -143 -82t-166 -29q-127 0 -214 35.5t-140.5 96t-77 140t-23.5 167.5zM348 449q0 -58 13.5 -104.5t36.5 -79.5t54 -50.5t66 -17.5 q37 0 69.5 17.5t56 50.5t37 79.5t13.5 104.5q0 60 -13.5 107.5t-37 81t-56 51.5t-69.5 18q-35 0 -66 -18t-54 -51.5t-36.5 -81t-13.5 -107.5zM987 539q39 1 84.5 5t85.5 8t67.5 7.5t32.5 5.5v15q0 55 -27 91t-81 36q-26 0 -51 -10t-47 -31t-38.5 -52.5t-25.5 -74.5z" />
<glyph unicode="&#x178;" horiz-adv-x="1444" d="M14 1202l9 195q66 -6 155 -11.5t182 -5.5q101 0 186 5.5t161 11.5l-11 -195q-52 -6 -90 -8l-76 -4l242 -424h39l131 225q29 48 42 80.5t13 56.5q0 31 -19.5 45.5t-53.5 20.5l-47 8l8 195q66 -8 136 -12.5t155 -4.5q83 0 162.5 4.5t144.5 12.5l-8 -193q-16 -3 -28.5 -5 t-24.5 -3.5t-24.5 -2t-29.5 -1.5l-475 -682q-1 -30 -1.5 -48t-0.5 -31v-24.5v-27.5q0 -56 9 -90t25.5 -53.5t40.5 -28t54 -12.5l39 -7l-8 -194q-44 4 -97 8q-45 3 -105.5 5.5t-131.5 2.5q-69 0 -154.5 -2t-193.5 -14l8 194q26 3 54 6q24 2 53.5 4.5t58.5 2.5q1 21 3 52.5 t4 67.5t3.5 75t3.5 77l-367 602q-21 34 -40 57t-37 37t-35 20.5t-35 8.5zM462 1702q0 33 10 62.5t29 52t46 36t61 13.5q28 0 53 -10t44 -29.5t29.5 -47.5t10.5 -65q0 -34 -9.5 -64.5t-27.5 -53.5t-45 -36.5t-61 -13.5q-29 0 -54.5 10t-44.5 29.5t-30 48.5t-11 68zM845 1702 q0 33 10 62.5t29.5 52t46.5 36t62 13.5q28 0 52.5 -10t43 -29.5t29 -47.5t10.5 -65q0 -34 -9.5 -64.5t-28.5 -53.5t-46 -36.5t-61 -13.5q-28 0 -53 10t-44 29.5t-30 48.5t-11 68z" />
<glyph unicode="&#x2c6;" horiz-adv-x="842" d="M102 1194l340 371l297 -371l-104 -102l-207 182l-225 -182z" />
<glyph unicode="&#x2dc;" horiz-adv-x="979" d="M100 1169q19 39 46.5 83.5t61 82.5t73 63t84.5 25q40 0 81.5 -17t80 -38t71 -38t55.5 -17t45.5 16.5t40.5 36.5q21 23 41 53l99 -78q-20 -38 -46.5 -82t-60 -81t-72.5 -61.5t-84 -24.5q-41 0 -82 17t-79.5 38t-71 38t-55.5 17t-45 -17.5t-40 -37.5q-21 -25 -40 -55z" />
<glyph unicode="&#x2000;" horiz-adv-x="985" />
<glyph unicode="&#x2001;" horiz-adv-x="1970" />
<glyph unicode="&#x2002;" horiz-adv-x="985" />
<glyph unicode="&#x2003;" horiz-adv-x="1970" />
<glyph unicode="&#x2004;" horiz-adv-x="656" />
<glyph unicode="&#x2005;" horiz-adv-x="492" />
<glyph unicode="&#x2006;" horiz-adv-x="328" />
<glyph unicode="&#x2007;" horiz-adv-x="328" />
<glyph unicode="&#x2008;" horiz-adv-x="246" />
<glyph unicode="&#x2009;" horiz-adv-x="394" />
<glyph unicode="&#x200a;" horiz-adv-x="109" />
<glyph unicode="&#x2010;" horiz-adv-x="776" d="M102 389l7 229h563l-6 -229h-564z" />
<glyph unicode="&#x2011;" horiz-adv-x="776" d="M102 389l7 229h563l-6 -229h-564z" />
<glyph unicode="&#x2012;" horiz-adv-x="776" d="M102 389l7 229h563l-6 -229h-564z" />
<glyph unicode="&#x2013;" horiz-adv-x="1137" d="M104 410l9 188h911l-6 -188h-914z" />
<glyph unicode="&#x2014;" horiz-adv-x="1481" d="M104 410l9 188h1255l-6 -188h-1258z" />
<glyph unicode="&#x2018;" horiz-adv-x="537" d="M113 1149q0 42 11.5 94.5t41 109t79.5 114.5t128 110l106 -123q-46 -40 -73 -94.5t-27 -105.5q0 -39 22.5 -76t73.5 -66q0 -34 -11.5 -66.5t-34 -58t-56 -40.5t-76.5 -15q-37 0 -70 13t-58.5 40t-40.5 68t-15 96z" />
<glyph unicode="&#x2019;" horiz-adv-x="516" d="M103 1055q46 40 73 94.5t27 105.5q0 39 -22.5 76t-73.5 66q0 34 11.5 66.5t34 58t56 40.5t76.5 15q37 0 70 -13t58.5 -40t40.5 -68t15 -96q0 -42 -11.5 -94.5t-41 -109t-79.5 -114.5t-128 -110z" />
<glyph unicode="&#x201a;" horiz-adv-x="549" d="M70 -184q46 40 73 94.5t27 105.5q0 39 -22.5 76t-73.5 66q0 34 11.5 66.5t34 58t56 40.5t76.5 15q37 0 70 -13t58.5 -40t40.5 -68t15 -96q0 -42 -11.5 -94.5t-41 -109t-79.5 -114.5t-128 -110z" />
<glyph unicode="&#x201c;" horiz-adv-x="938" d="M113 1149q0 42 11.5 94.5t41 109t79.5 114.5t128 110l106 -123q-46 -40 -73 -95t-27 -106q0 -38 22.5 -75t73.5 -66q0 -35 -11.5 -67t-34 -57.5t-56 -40.5t-76.5 -15q-37 0 -70 13t-58.5 40t-40.5 67.5t-15 96.5zM514 1149q0 42 11.5 94.5t41 109t79.5 114.5t128 110 l107 -123q-23 -20 -42 -44.5t-32 -50.5t-20 -53.5t-7 -52.5q0 -38 23 -75t74 -66q0 -35 -12 -67t-34.5 -57.5t-56 -40.5t-76.5 -15q-37 0 -70 13t-58.5 40t-40.5 67.5t-15 96.5z" />
<glyph unicode="&#x201d;" horiz-adv-x="918" d="M102 1055q47 40 74 94.5t27 105.5q0 39 -23 76t-74 66q0 34 12 66.5t34.5 58t56 40.5t76.5 15q37 0 70 -13t58.5 -40t40.5 -68t15 -96q0 -42 -11.5 -94.5t-41 -109t-79.5 -114.5t-128 -110zM504 1055q46 40 73 94.5t27 105.5q0 39 -22.5 76t-73.5 66q0 34 11.5 66.5 t34 58t56 40.5t76.5 15q37 0 70 -13t58.5 -40t40.5 -68t15 -96q0 -42 -11.5 -94.5t-41 -109t-79.5 -114.5t-128 -110z" />
<glyph unicode="&#x201e;" horiz-adv-x="950" d="M70 -184q46 40 73 94.5t27 105.5q0 39 -22.5 76t-73.5 66q0 34 11.5 66.5t34 58t56 40.5t76.5 15q37 0 70 -13t58.5 -40t40.5 -68t15 -96q0 -42 -11.5 -94.5t-41 -109t-79.5 -114.5t-128 -110zM471 -184q46 40 73 94.5t27 105.5q0 39 -22.5 76t-73.5 66q0 34 12 66.5 t34.5 58t55.5 40.5t76 15q37 0 70.5 -13t59 -40t40.5 -68t15 -96q0 -42 -11.5 -94.5t-41 -109t-80 -114.5t-127.5 -110z" />
<glyph unicode="&#x2022;" horiz-adv-x="713" d="M143 705q0 57 18.5 99t49 69t69 40t78.5 13q41 0 80.5 -13t70.5 -40t50 -69t19 -99q0 -52 -17 -94.5t-46.5 -73t-69.5 -47.5t-87 -17q-45 0 -84 17t-68.5 47.5t-46 73t-16.5 94.5z" />
<glyph unicode="&#x202f;" horiz-adv-x="394" />
<glyph unicode="&#x2039;" horiz-adv-x="733" d="M41 524l539 465l88 -86l-303 -379l274 -379l-88 -86z" />
<glyph unicode="&#x203a;" horiz-adv-x="731" d="M61 145l304 379l-275 379l88 86l510 -465l-538 -465z" />
<glyph unicode="&#x205f;" horiz-adv-x="492" />
<glyph unicode="&#x20ac;" horiz-adv-x="1483" d="M43 408l6 204h203q-2 14 -2 28v30v37l-197 -15l8 205h213q31 129 96.5 228.5t156 168t203.5 103.5t241 35q70 0 126 -5t103.5 -13t88.5 -18.5t81 -21.5l-16 -448h-219v14q0 45 -6 93t-26 87.5t-58.5 64.5t-102.5 25q-47 0 -93.5 -21t-87.5 -61.5t-74 -98.5t-52 -132h389 l-8 -172q-55 0 -119 -1q-55 -1 -128 -2t-157 -3q0 -61 6 -107h394l-6 -172q-44 -1 -97 -1q-45 -1 -105.5 -1t-131.5 -2q31 -62 75.5 -105.5t98 -71.5t113.5 -41t122 -13q28 0 63.5 4t70 10t63.5 13.5t45 15.5l47 -203q-41 -17 -92 -32.5t-107.5 -27.5t-117 -19t-121.5 -7 q-115 0 -218.5 30t-188 88.5t-147 145.5t-95.5 201q-65 -3 -125.5 -7t-114.5 -9z" />
<glyph unicode="&#x25fc;" horiz-adv-x="925" d="M0 0v925h925v-925h-925z" />
</font>
</defs>
</svg>
